<svg xmlns="http://www.w3.org/2000/svg" xmlns:xlink="http://www.w3.org/1999/xlink" width="1366" zoomAndPan="magnify" viewBox="0 0 1024.5 576" height="768" preserveAspectRatio="xMidYMid meet" version="1.0"><defs><clipPath id="f7991a39ad"><path d="M 0 0.140625 L 1024 0.140625 L 1024 575.859375 L 0 575.859375 Z M 0 0.140625 " clip-rule="nonzero"/></clipPath></defs><g clip-path="url(#f7991a39ad)"><path fill="#ffffff" d="M 0 0.140625 L 1024 0.140625 L 1024 575.859375 L 0 575.859375 Z M 0 0.140625 " fill-opacity="1" fill-rule="nonzero"/><path fill="#ffffff" d="M 0 0.140625 L 1024 0.140625 L 1024 575.859375 L 0 575.859375 Z M 0 0.140625 " fill-opacity="1" fill-rule="nonzero"/></g><path fill="#680c0d" d="M 339.011719 302.914062 L 378.328125 302.914062 L 378.328125 316 L 353.449219 316 L 353.449219 340.234375 L 373.222656 340.234375 L 373.222656 353.320312 L 353.449219 353.320312 L 353.449219 381.488281 L 378.386719 381.488281 L 378.386719 394.574219 L 339.070312 394.574219 Z M 339.011719 302.914062 " fill-opacity="1" fill-rule="nonzero"/><path fill="#680c0d" d="M 397.871094 316.058594 L 382.789062 316.058594 L 382.789062 302.972656 L 427.386719 302.972656 L 427.386719 316.058594 L 412.304688 316.058594 L 412.304688 394.691406 L 397.871094 394.691406 Z M 397.871094 316.058594 " fill-opacity="1" fill-rule="nonzero"/><path fill="#680c0d" d="M 434.3125 302.914062 L 448.746094 302.914062 L 448.746094 340.292969 L 464.238281 340.292969 L 464.238281 302.914062 L 478.675781 302.914062 L 478.675781 394.691406 L 464.238281 394.691406 L 464.238281 353.378906 L 448.746094 353.378906 L 448.746094 394.691406 L 434.3125 394.691406 Z M 434.3125 302.914062 " fill-opacity="1" fill-rule="nonzero"/><path fill="#680c0d" d="M 489.355469 302.914062 L 503.792969 302.914062 L 503.792969 394.691406 L 489.355469 394.691406 Z M 489.355469 302.914062 " fill-opacity="1" fill-rule="nonzero"/><path fill="#680c0d" d="M 513.648438 373.449219 L 513.648438 324.15625 C 513.648438 310.011719 520.984375 301.621094 534.894531 301.621094 C 548.800781 301.621094 556.136719 310.011719 556.136719 324.15625 L 556.136719 333.835938 L 542.464844 333.835938 L 542.464844 323.214844 C 542.464844 317.171875 539.585938 314.707031 535.246094 314.707031 C 530.902344 314.707031 528.027344 317.171875 528.027344 323.214844 L 528.027344 374.445312 C 528.027344 380.488281 530.902344 382.835938 535.246094 382.835938 C 539.585938 382.835938 542.464844 380.488281 542.464844 374.445312 L 542.464844 360.421875 L 556.078125 360.421875 L 556.078125 373.390625 C 556.078125 387.53125 548.742188 395.921875 534.835938 395.921875 C 520.925781 395.921875 513.648438 387.648438 513.648438 373.449219 Z M 513.648438 373.449219 " fill-opacity="1" fill-rule="nonzero"/><path fill="#680c0d" d="M 562.53125 372.921875 L 562.53125 367.699219 L 576.148438 367.699219 L 576.148438 373.976562 C 576.148438 380.550781 579.023438 382.894531 583.597656 382.894531 C 588.175781 382.894531 591.050781 380.550781 591.050781 373.742188 C 591.050781 366.113281 588.175781 361.300781 578.730469 353.027344 C 566.699219 342.40625 562.765625 334.953125 562.765625 324.449219 C 562.765625 310.011719 570.21875 301.621094 584.246094 301.621094 C 598.269531 301.621094 605.195312 310.011719 605.195312 324.683594 L 605.195312 328.496094 L 591.582031 328.496094 L 591.582031 323.804688 C 591.582031 317.230469 588.941406 314.765625 584.363281 314.765625 C 579.785156 314.765625 577.144531 317.230469 577.144531 323.570312 C 577.144531 330.257812 580.136719 335.128906 589.585938 343.34375 C 601.671875 353.964844 605.429688 361.300781 605.429688 372.683594 C 605.429688 387.648438 597.800781 396.042969 583.65625 396.042969 C 569.515625 396.042969 562.53125 387.648438 562.53125 372.921875 Z M 562.53125 372.921875 " fill-opacity="1" fill-rule="nonzero"/><path fill="#680c0d" d="M 622.386719 395.980469 L 622.386719 369.222656 L 631.308594 369.222656 L 631.308594 386.183594 L 647.855469 386.183594 L 647.855469 372.683594 L 656.777344 372.683594 L 656.777344 386.183594 L 675.964844 386.183594 L 675.964844 369.222656 L 684.886719 369.222656 L 684.886719 395.980469 Z M 622.386719 395.980469 " fill-opacity="1" fill-rule="nonzero"/><path fill="#680c0d" d="M 658.242188 354.550781 L 622.328125 366.40625 L 622.328125 356.019531 L 645.273438 349.328125 L 645.273438 349.152344 L 622.328125 342.464844 L 622.328125 332.898438 L 658.242188 344.753906 L 684.828125 344.753906 L 684.828125 354.550781 Z M 658.242188 354.550781 " fill-opacity="1" fill-rule="nonzero"/><path fill="#680c0d" d="M 622.386719 328.4375 L 622.386719 301.621094 L 631.308594 301.621094 L 631.308594 318.582031 L 647.855469 318.582031 L 647.855469 305.082031 L 656.777344 305.082031 L 656.777344 318.582031 L 675.964844 318.582031 L 675.964844 301.621094 L 684.886719 301.621094 L 684.886719 328.4375 Z M 622.386719 328.4375 " fill-opacity="1" fill-rule="nonzero"/><path fill="#680c0d" d="M 679.308594 194.644531 L 659.359375 194.644531 C 658.359375 194.644531 657.421875 194.351562 656.601562 193.820312 C 627.789062 175.277344 585.710938 155.207031 533.191406 150.867188 C 529.964844 150.632812 527.265625 153.507812 527.265625 157.085938 L 527.265625 188.421875 C 527.265625 191.886719 524.800781 194.644531 521.691406 194.644531 L 502.148438 194.644531 C 499.097656 194.644531 496.574219 191.886719 496.574219 188.421875 L 496.574219 157.144531 C 496.574219 153.566406 493.875 150.691406 490.648438 150.925781 C 438.125 155.328125 396.109375 175.277344 367.238281 193.820312 C 366.417969 194.351562 365.476562 194.644531 364.480469 194.644531 L 344.585938 194.644531 C 339.1875 194.644531 336.957031 186.957031 341.300781 183.433594 C 369.234375 160.726562 428.03125 121.820312 509.132812 120.820312 C 593.105469 119.824219 654.195312 160.371094 682.597656 183.433594 C 686.9375 186.957031 684.648438 194.644531 679.308594 194.644531 Z M 679.308594 194.644531 " fill-opacity="1" fill-rule="nonzero"/><path fill="#680c0d" d="M 679.308594 206.964844 L 659.359375 206.964844 C 658.359375 206.964844 657.421875 207.261719 656.601562 207.789062 C 627.789062 226.332031 585.710938 246.34375 533.191406 250.683594 C 529.964844 250.976562 527.265625 248.042969 527.265625 244.464844 L 527.265625 213.128906 C 527.265625 209.667969 524.800781 206.90625 521.691406 206.90625 L 502.148438 206.90625 C 499.097656 206.90625 496.574219 209.726562 496.574219 213.128906 L 496.574219 244.40625 C 496.574219 247.984375 493.875 250.859375 490.648438 250.625 C 438.125 246.285156 396.109375 226.332031 367.238281 207.789062 C 366.417969 207.261719 365.476562 206.964844 364.480469 206.964844 L 344.585938 206.964844 C 339.1875 206.964844 336.957031 214.652344 341.300781 218.175781 C 369.234375 240.886719 428.03125 279.792969 509.132812 280.789062 C 593.105469 281.785156 654.195312 241.238281 682.597656 218.175781 C 686.9375 214.652344 684.648438 206.964844 679.308594 206.964844 Z M 679.308594 206.964844 " fill-opacity="1" fill-rule="nonzero"/><path fill="#680c0d" d="M 339.421875 434.949219 C 339.128906 434.125 339.011719 433.1875 339.011719 432.308594 C 339.070312 431.015625 339.480469 429.785156 340.242188 428.726562 C 341.007812 427.789062 341.945312 427.023438 343.003906 426.496094 C 344.117188 425.96875 345.289062 425.558594 346.523438 425.324219 C 347.167969 425.207031 347.753906 425.089844 348.402344 424.972656 C 349.046875 424.855469 349.632812 424.796875 350.160156 424.738281 C 350.042969 424.089844 349.808594 423.445312 349.457031 422.917969 C 349.105469 422.332031 348.519531 421.921875 347.871094 421.625 C 347.285156 421.390625 346.640625 421.273438 345.996094 421.214844 C 345.347656 421.214844 344.644531 421.273438 344 421.390625 C 343.355469 421.507812 342.648438 421.742188 342.0625 421.980469 C 341.476562 422.214844 340.890625 422.507812 340.359375 422.859375 L 339.304688 419.515625 C 340.359375 418.867188 341.535156 418.339844 342.707031 417.988281 C 343.941406 417.695312 345.171875 417.519531 346.40625 417.519531 C 347.578125 417.519531 348.695312 417.695312 349.808594 417.988281 C 350.925781 418.339844 351.921875 418.925781 352.742188 419.691406 C 353.566406 418.925781 354.5625 418.339844 355.675781 417.988281 C 356.792969 417.636719 357.964844 417.519531 359.082031 417.519531 C 360.3125 417.519531 361.546875 417.636719 362.777344 417.988281 C 364.011719 418.339844 365.125 418.808594 366.179688 419.515625 L 365.183594 422.859375 C 364.65625 422.507812 364.070312 422.214844 363.480469 421.980469 C 362.835938 421.742188 362.191406 421.507812 361.546875 421.390625 C 360.898438 421.273438 360.195312 421.214844 359.492188 421.214844 C 358.847656 421.273438 358.199219 421.390625 357.613281 421.625 C 356.96875 421.859375 356.441406 422.332031 356.03125 422.917969 C 355.675781 423.445312 355.441406 424.089844 355.324219 424.738281 C 355.910156 424.796875 356.5 424.855469 357.085938 424.972656 C 357.671875 425.089844 358.316406 425.148438 358.90625 425.324219 C 360.136719 425.558594 361.3125 425.96875 362.484375 426.496094 C 363.539062 427.023438 364.480469 427.789062 365.242188 428.726562 C 366.003906 429.785156 366.417969 431.015625 366.476562 432.308594 C 366.59375 434.535156 365.59375 436.648438 363.835938 437.941406 C 362.777344 438.703125 361.664062 439.289062 360.429688 439.582031 C 359.140625 439.933594 357.847656 440.171875 356.5 440.289062 C 355.441406 440.40625 354.210938 440.40625 352.742188 440.40625 C 351.277344 440.40625 350.042969 440.347656 348.988281 440.289062 C 347.636719 440.171875 346.347656 439.933594 345.054688 439.582031 C 343.824219 439.230469 342.648438 438.644531 341.59375 437.941406 C 340.65625 437.234375 339.890625 436.179688 339.421875 434.949219 Z M 361.488281 432.542969 C 361.488281 431.835938 361.3125 431.074219 360.839844 430.488281 C 360.371094 429.902344 359.785156 429.429688 359.082031 429.136719 C 358.199219 428.785156 357.261719 428.492188 356.324219 428.375 C 355.148438 428.199219 353.917969 428.140625 352.742188 428.140625 C 351.570312 428.140625 350.394531 428.199219 349.222656 428.375 C 348.285156 428.492188 347.34375 428.726562 346.464844 429.136719 C 345.761719 429.429688 345.171875 429.902344 344.703125 430.488281 C 344.292969 431.074219 344.058594 431.777344 344.117188 432.542969 C 344.117188 433.1875 344.351562 433.832031 344.703125 434.300781 C 345.171875 434.890625 345.761719 435.359375 346.464844 435.710938 C 347.34375 436.121094 348.285156 436.414062 349.222656 436.589844 C 351.570312 437.058594 354.035156 437.058594 356.382812 436.589844 C 357.320312 436.414062 358.257812 436.121094 359.140625 435.652344 C 359.84375 435.359375 360.429688 434.890625 360.898438 434.242188 C 361.253906 433.773438 361.488281 433.1875 361.488281 432.542969 Z M 361.488281 432.542969 " fill-opacity="1" fill-rule="nonzero"/><path fill="#680c0d" d="M 344.820312 415.113281 C 344.703125 415.523438 344.820312 415.992188 345.054688 416.402344 L 341.945312 417.8125 C 341.300781 417.109375 340.949219 416.167969 341.007812 415.171875 C 340.949219 413.9375 341.300781 412.765625 341.945312 411.769531 C 342.648438 410.769531 343.589844 409.890625 344.644531 409.304688 C 345.878906 408.597656 347.167969 408.128906 348.519531 407.835938 C 349.984375 407.484375 351.453125 407.367188 352.917969 407.367188 C 354.386719 407.367188 355.910156 407.542969 357.378906 407.894531 C 358.730469 408.1875 359.960938 408.714844 361.136719 409.421875 C 362.191406 410.007812 363.070312 410.886719 363.777344 411.945312 C 364.363281 413 364.65625 414.234375 364.539062 415.40625 C 364.539062 416.285156 364.1875 417.109375 363.597656 417.8125 L 360.546875 416.402344 C 360.722656 416.050781 360.839844 415.640625 360.78125 415.230469 C 360.664062 414.644531 360.371094 414.054688 359.960938 413.644531 C 359.433594 413.175781 358.789062 412.765625 358.140625 412.53125 C 357.320312 412.238281 356.5 412.003906 355.675781 411.828125 C 354.738281 411.710938 353.800781 411.59375 352.859375 411.59375 C 351.921875 411.59375 350.984375 411.652344 350.042969 411.769531 C 349.164062 411.886719 348.34375 412.121094 347.519531 412.414062 C 346.816406 412.648438 346.230469 413.058594 345.644531 413.527344 C 345.230469 413.9375 344.9375 414.46875 344.820312 415.113281 Z M 344.820312 415.113281 " fill-opacity="1" fill-rule="nonzero"/><path fill="#680c0d" d="M 381.4375 436.882812 C 382.671875 436.882812 383.902344 436.648438 385.019531 436.179688 C 386.132812 435.769531 387.074219 435.007812 387.835938 434.125 C 388.65625 433.1875 389.300781 432.070312 389.65625 430.839844 C 390.125 429.429688 390.359375 427.90625 390.300781 426.4375 C 390.359375 424.441406 390.066406 422.449219 389.300781 420.570312 C 388.714844 419.101562 387.835938 417.753906 386.71875 416.695312 C 385.546875 415.640625 384.195312 414.878906 382.730469 414.351562 C 381.261719 413.878906 379.738281 413.585938 378.152344 413.527344 C 376.566406 413.527344 374.984375 413.644531 373.398438 413.996094 C 371.933594 414.292969 370.523438 414.761719 369.175781 415.40625 L 368 412.121094 C 369.46875 411.414062 370.992188 410.945312 372.578125 410.59375 C 374.574219 410.183594 376.566406 410.007812 378.5625 410.007812 C 380.851562 410.007812 383.140625 410.417969 385.3125 411.121094 C 386.953125 411.652344 388.480469 412.53125 389.773438 413.585938 C 390.945312 414.585938 392 415.816406 392.824219 417.167969 C 393.585938 418.515625 394.171875 419.984375 394.582031 421.507812 C 394.9375 423.09375 395.113281 424.679688 395.054688 426.261719 C 395.054688 428.316406 394.699219 430.371094 393.996094 432.367188 C 393.410156 434.066406 392.414062 435.59375 391.179688 436.824219 C 389.949219 438.058594 388.480469 438.996094 386.835938 439.582031 C 385.019531 440.230469 383.140625 440.582031 381.203125 440.523438 C 379.328125 440.523438 377.449219 440.289062 375.6875 439.757812 C 374.105469 439.289062 372.636719 438.527344 371.34375 437.472656 C 370.113281 436.472656 369.175781 435.183594 368.527344 433.714844 C 367.824219 432.070312 367.472656 430.3125 367.472656 428.550781 C 367.472656 427.144531 367.707031 425.792969 368.117188 424.441406 C 368.527344 423.152344 369.234375 421.980469 370.113281 420.921875 C 371.050781 419.867188 372.167969 419.042969 373.457031 418.457031 C 374.925781 417.871094 376.449219 417.578125 378.035156 417.636719 C 379.207031 417.695312 380.382812 417.871094 381.496094 418.28125 L 380.148438 421.566406 C 379.5625 421.390625 378.972656 421.332031 378.386719 421.332031 C 377.449219 421.332031 376.507812 421.566406 375.6875 421.980469 C 374.925781 422.390625 374.28125 422.976562 373.75 423.679688 C 373.28125 424.382812 372.929688 425.207031 372.695312 426.027344 C 372.460938 426.90625 372.34375 427.789062 372.34375 428.667969 C 372.34375 429.84375 372.578125 430.957031 372.988281 432.070312 C 373.867188 434.066406 375.511719 435.59375 377.566406 436.296875 C 378.972656 436.648438 380.207031 436.882812 381.4375 436.882812 Z M 381.4375 436.882812 " fill-opacity="1" fill-rule="nonzero"/><path fill="#680c0d" d="M 375.804688 444.921875 L 389.65625 444.921875 L 389.65625 437.351562 C 390.59375 436.648438 391.472656 435.886719 392.238281 434.949219 C 393 433.949219 393.703125 432.953125 394.230469 431.835938 L 394.230469 449.03125 L 375.21875 449.03125 C 373.984375 449.089844 372.753906 448.855469 371.640625 448.386719 C 370.816406 448.035156 370.113281 447.503906 369.527344 446.800781 C 368.941406 446.039062 368.527344 445.15625 368.234375 444.277344 L 371.109375 441.519531 C 371.460938 442.457031 371.992188 443.28125 372.753906 443.925781 C 373.632812 444.628906 374.691406 444.980469 375.804688 444.921875 Z M 375.804688 444.921875 " fill-opacity="1" fill-rule="nonzero"/><path fill="#680c0d" d="M 423.457031 417.8125 C 424.863281 418.164062 426.039062 419.101562 426.800781 420.335938 C 427.679688 421.859375 428.148438 423.621094 428.03125 425.441406 C 427.972656 427.964844 427.386719 429.84375 426.214844 431.074219 C 425.214844 432.1875 423.691406 432.835938 422.164062 432.777344 C 421.109375 432.777344 419.992188 432.542969 419.054688 432.070312 C 418.234375 431.660156 417.527344 431.015625 417.058594 430.195312 C 416.589844 429.371094 416.296875 428.433594 416.296875 427.496094 C 416.238281 426.378906 416.355469 425.324219 416.707031 424.265625 C 416.882812 423.621094 417.058594 422.976562 417.175781 422.332031 C 417.292969 421.683594 417.058594 421.390625 416.472656 421.390625 C 415.476562 421.390625 414.710938 422.097656 414.125 423.503906 C 413.480469 425.148438 413.246094 426.90625 413.421875 428.667969 C 413.480469 429.84375 413.773438 431.074219 414.242188 432.128906 C 415.0625 434.125 416.707031 435.652344 418.761719 436.355469 C 419.875 436.707031 421.109375 436.941406 422.28125 436.882812 C 423.515625 436.882812 424.746094 436.648438 425.863281 436.179688 C 426.917969 435.710938 427.914062 435.007812 428.679688 434.125 C 429.5 433.1875 430.085938 432.070312 430.496094 430.839844 C 430.90625 429.429688 431.144531 427.90625 431.144531 426.4375 C 431.203125 424.441406 430.847656 422.449219 430.144531 420.570312 C 429.558594 419.101562 428.679688 417.753906 427.503906 416.695312 C 426.332031 415.640625 424.980469 414.878906 423.515625 414.351562 C 422.046875 413.878906 420.519531 413.585938 418.9375 413.527344 C 417.351562 413.527344 415.769531 413.644531 414.183594 413.996094 C 412.714844 414.292969 411.308594 414.761719 409.957031 415.40625 L 408.785156 412.121094 C 410.429688 411.355469 412.1875 410.769531 414.007812 410.476562 C 415.710938 410.183594 417.410156 410.007812 419.113281 410.007812 C 421.519531 410.007812 423.867188 410.359375 426.15625 411.121094 C 427.796875 411.710938 429.324219 412.53125 430.613281 413.585938 C 431.847656 414.585938 432.902344 415.816406 433.667969 417.167969 C 434.488281 418.515625 435.074219 419.984375 435.425781 421.507812 C 435.777344 423.09375 435.953125 424.679688 435.953125 426.261719 C 435.953125 428.316406 435.660156 430.371094 434.957031 432.367188 C 434.371094 434.007812 433.429688 435.59375 432.199219 436.824219 C 430.964844 438.058594 429.5 438.996094 427.855469 439.582031 C 426.039062 440.230469 424.160156 440.582031 422.222656 440.523438 C 420.34375 440.523438 418.46875 440.289062 416.707031 439.699219 C 415.121094 439.230469 413.65625 438.46875 412.363281 437.351562 C 411.132812 436.296875 410.132812 435.007812 409.546875 433.539062 C 408.84375 431.894531 408.433594 430.136719 408.492188 428.375 C 408.433594 427.023438 408.609375 425.734375 408.902344 424.382812 C 409.195312 423.152344 409.664062 421.980469 410.371094 420.980469 C 411.015625 419.984375 411.953125 419.160156 413.011719 418.574219 C 414.242188 417.929688 415.59375 417.636719 416.941406 417.636719 C 417.410156 417.636719 417.820312 417.695312 418.234375 417.753906 C 418.820312 417.871094 419.40625 418.105469 419.875 418.515625 C 420.519531 419.160156 420.933594 419.984375 421.050781 420.863281 C 421.109375 421.980469 420.992188 423.152344 420.636719 424.207031 C 420.167969 425.851562 420.109375 427.203125 420.460938 428.140625 C 420.636719 428.84375 421.285156 429.371094 421.988281 429.3125 C 422.515625 429.253906 422.984375 428.902344 423.28125 428.433594 C 423.808594 427.496094 424.101562 426.496094 424.042969 425.382812 C 424.101562 424.324219 423.867188 423.328125 423.398438 422.390625 C 423.042969 421.625 422.398438 421.097656 421.636719 420.863281 Z M 423.457031 417.8125 " fill-opacity="1" fill-rule="nonzero"/><path fill="#680c0d" d="M 449.277344 429.078125 C 449.277344 430.371094 449.097656 431.660156 448.863281 432.894531 C 448.570312 434.183594 448.101562 435.417969 447.457031 436.589844 C 446.8125 437.707031 445.988281 438.644531 444.933594 439.40625 C 443.816406 440.171875 442.527344 440.523438 441.175781 440.523438 C 440.238281 440.523438 439.359375 440.289062 438.59375 439.875 C 437.773438 439.464844 437.128906 438.761719 436.71875 438 L 438.652344 435.476562 C 438.890625 435.945312 439.242188 436.296875 439.710938 436.589844 C 440.238281 436.824219 440.765625 436.941406 441.355469 436.824219 C 442.058594 436.707031 442.703125 436.296875 443.113281 435.710938 C 443.582031 435.066406 443.933594 434.417969 444.171875 433.65625 C 444.40625 432.894531 444.523438 432.070312 444.640625 431.25 C 444.699219 430.546875 444.757812 429.84375 444.757812 429.136719 C 444.757812 427.613281 444.582031 426.085938 444.171875 424.621094 C 443.933594 423.855469 443.582031 423.152344 443.113281 422.566406 C 442.703125 421.980469 442.058594 421.625 441.355469 421.507812 C 440.765625 421.390625 440.179688 421.449219 439.710938 421.742188 C 439.242188 421.980469 438.890625 422.390625 438.652344 422.859375 L 436.71875 420.335938 C 437.128906 419.515625 437.832031 418.867188 438.59375 418.457031 C 439.417969 417.988281 440.296875 417.8125 441.175781 417.8125 C 442.527344 417.8125 443.816406 418.164062 444.933594 418.925781 C 445.988281 419.632812 446.871094 420.628906 447.457031 421.742188 C 448.101562 422.917969 448.570312 424.148438 448.863281 425.441406 C 449.160156 426.554688 449.277344 427.847656 449.277344 429.078125 Z M 449.277344 429.078125 " fill-opacity="1" fill-rule="nonzero"/><path fill="#680c0d" d="M 462.773438 421.15625 C 461.65625 421.097656 460.542969 421.273438 459.546875 421.683594 C 458.605469 422.097656 457.84375 422.683594 457.199219 423.445312 C 456.550781 424.207031 456.023438 425.148438 455.730469 426.085938 C 455.378906 427.144531 455.203125 428.199219 455.203125 429.3125 C 455.203125 430.078125 455.261719 430.898438 455.320312 431.660156 C 455.378906 432.484375 455.613281 433.304688 455.90625 434.125 C 456.140625 434.828125 456.550781 435.535156 457.140625 436.003906 C 457.667969 436.53125 458.429688 436.824219 459.191406 436.765625 C 460.191406 436.824219 461.128906 436.414062 461.714844 435.652344 C 462.363281 434.828125 462.65625 433.890625 462.65625 432.835938 L 465.824219 432.835938 C 465.824219 433.832031 466.117188 434.828125 466.820312 435.59375 C 468.113281 437.058594 470.34375 437.175781 471.808594 435.886719 C 471.925781 435.769531 472.042969 435.710938 472.101562 435.59375 C 472.691406 434.828125 472.984375 433.949219 472.925781 433.011719 C 472.984375 432.070312 472.691406 431.132812 472.160156 430.3125 C 471.691406 429.667969 471.046875 429.136719 470.285156 428.84375 C 469.460938 428.492188 468.640625 428.316406 467.761719 428.199219 C 466.9375 428.082031 466.117188 428.023438 465.238281 428.082031 C 464.414062 428.082031 463.59375 428.140625 462.773438 428.199219 C 462.65625 426.789062 462.714844 425.382812 462.949219 424.03125 C 463.183594 422.859375 463.652344 421.683594 464.355469 420.6875 C 465.0625 419.75 465.941406 418.984375 466.996094 418.457031 C 468.230469 417.929688 469.578125 417.636719 470.929688 417.636719 C 472.21875 417.695312 473.453125 417.871094 474.683594 418.222656 C 475.742188 418.515625 476.679688 418.925781 477.558594 419.574219 L 476.503906 422.859375 C 475.742188 422.332031 474.917969 421.980469 474.039062 421.683594 C 473.21875 421.449219 472.335938 421.273438 471.457031 421.273438 C 470.519531 421.214844 469.578125 421.625 468.933594 422.332031 C 468.289062 423.035156 467.9375 423.855469 467.820312 424.796875 C 469.050781 424.855469 470.285156 425.03125 471.457031 425.382812 C 472.632812 425.734375 473.746094 426.320312 474.742188 427.023438 C 475.683594 427.730469 476.503906 428.667969 477.089844 429.726562 C 477.679688 430.898438 477.972656 432.246094 477.972656 433.539062 C 477.972656 434.417969 477.796875 435.300781 477.441406 436.121094 C 476.796875 437.824219 475.507812 439.171875 473.804688 439.875 C 472.867188 440.289062 471.808594 440.464844 470.753906 440.464844 C 469.402344 440.523438 468.054688 440.230469 466.761719 439.699219 C 465.707031 439.230469 464.769531 438.46875 464.179688 437.53125 C 463.652344 438.46875 462.890625 439.230469 461.890625 439.699219 C 460.835938 440.230469 459.664062 440.464844 458.488281 440.464844 C 457.199219 440.523438 455.964844 440.171875 454.851562 439.582031 C 453.792969 438.996094 452.914062 438.175781 452.269531 437.175781 C 451.5625 436.0625 451.09375 434.890625 450.859375 433.597656 C 450.507812 432.128906 450.390625 430.605469 450.449219 429.078125 C 450.449219 427.554688 450.742188 426.085938 451.328125 424.679688 C 451.859375 423.269531 452.679688 422.039062 453.675781 420.921875 C 454.675781 419.867188 455.964844 418.984375 457.316406 418.398438 C 458.78125 417.8125 460.425781 417.460938 462.007812 417.519531 Z M 462.773438 421.15625 " fill-opacity="1" fill-rule="nonzero"/><path fill="#680c0d" d="M 490.46875 426.90625 L 489.296875 423.972656 C 490.117188 423.679688 491 423.5625 491.878906 423.5625 C 493.050781 423.5625 494.167969 423.796875 495.28125 424.265625 C 496.222656 424.679688 497.042969 425.265625 497.6875 426.027344 C 498.335938 426.730469 498.804688 427.613281 499.097656 428.550781 C 499.390625 429.488281 499.566406 430.546875 499.566406 431.542969 C 499.566406 432.835938 499.332031 434.066406 498.863281 435.242188 C 498.394531 436.296875 497.6875 437.234375 496.808594 438.058594 C 495.871094 438.878906 494.8125 439.464844 493.640625 439.875 C 492.289062 440.347656 490.941406 440.523438 489.53125 440.523438 C 488.066406 440.523438 486.65625 440.289062 485.304688 439.699219 C 482.84375 438.644531 480.90625 436.589844 479.964844 434.066406 C 479.4375 432.71875 479.203125 431.308594 479.203125 429.84375 C 479.144531 428.140625 479.496094 426.496094 480.082031 424.914062 C 480.671875 423.503906 481.550781 422.214844 482.605469 421.097656 C 483.722656 420.042969 485.011719 419.160156 486.480469 418.574219 C 488.007812 417.988281 489.648438 417.695312 491.292969 417.636719 C 492.640625 417.636719 493.992188 417.753906 495.28125 418.046875 C 496.574219 418.339844 497.804688 418.75 498.980469 419.335938 L 497.804688 422.507812 C 496.808594 422.039062 495.8125 421.683594 494.753906 421.390625 C 493.640625 421.097656 492.464844 420.980469 491.351562 420.980469 C 490.117188 420.980469 488.886719 421.273438 487.769531 421.859375 C 486.832031 422.390625 486.070312 423.09375 485.484375 424.03125 C 484.894531 424.914062 484.484375 425.851562 484.25 426.847656 C 484.015625 427.847656 483.898438 428.84375 483.898438 429.902344 C 483.898438 430.839844 484.074219 431.777344 484.308594 432.660156 C 484.601562 433.421875 484.953125 434.183594 485.484375 434.828125 C 486.011719 435.417969 486.597656 435.886719 487.300781 436.238281 C 488.769531 436.882812 490.46875 436.941406 491.996094 436.355469 C 492.640625 436.121094 493.230469 435.710938 493.699219 435.183594 C 494.167969 434.710938 494.519531 434.125 494.753906 433.539062 C 494.988281 432.894531 495.105469 432.1875 495.105469 431.484375 C 495.164062 430.488281 494.929688 429.429688 494.460938 428.550781 C 493.933594 427.613281 493.050781 426.964844 491.996094 426.789062 C 491.46875 426.730469 490.941406 426.789062 490.46875 426.90625 Z M 490.46875 426.90625 " fill-opacity="1" fill-rule="nonzero"/><path fill="#680c0d" d="M 515.644531 417.8125 C 517.054688 418.164062 518.226562 419.101562 518.988281 420.335938 C 519.871094 421.859375 520.339844 423.621094 520.28125 425.441406 C 520.222656 427.964844 519.636719 429.84375 518.460938 431.074219 C 517.464844 432.1875 515.9375 432.835938 514.414062 432.777344 C 513.355469 432.777344 512.242188 432.542969 511.304688 432.070312 C 510.480469 431.660156 509.777344 431.015625 509.308594 430.195312 C 508.839844 429.371094 508.542969 428.433594 508.542969 427.496094 C 508.484375 426.378906 508.601562 425.324219 508.957031 424.265625 C 509.132812 423.621094 509.308594 422.976562 509.425781 422.332031 C 509.542969 421.683594 509.308594 421.390625 508.722656 421.390625 C 507.722656 421.390625 506.960938 422.097656 506.375 423.503906 C 505.726562 425.148438 505.492188 426.90625 505.667969 428.667969 C 505.726562 429.84375 506.019531 431.074219 506.492188 432.128906 C 506.902344 433.128906 507.488281 434.007812 508.308594 434.710938 C 509.074219 435.476562 510.011719 436.003906 511.007812 436.355469 C 512.125 436.707031 513.355469 436.941406 514.53125 436.882812 C 515.761719 436.882812 516.996094 436.648438 518.109375 436.179688 C 519.167969 435.710938 520.164062 435.007812 520.925781 434.125 C 521.75 433.1875 522.335938 432.070312 522.746094 430.839844 C 523.15625 429.429688 523.390625 427.90625 523.332031 426.4375 C 523.390625 424.441406 523.039062 422.449219 522.335938 420.570312 C 521.75 419.101562 520.867188 417.753906 519.695312 416.695312 C 518.519531 415.640625 517.171875 414.878906 515.761719 414.351562 C 514.296875 413.878906 512.769531 413.585938 511.183594 413.527344 C 509.601562 413.527344 508.015625 413.644531 506.433594 413.996094 C 504.964844 414.292969 503.558594 414.761719 502.207031 415.40625 L 501.035156 412.121094 C 502.675781 411.355469 504.4375 410.769531 506.257812 410.476562 C 507.957031 410.183594 509.660156 410.007812 511.363281 410.007812 C 513.765625 410.007812 516.171875 410.359375 518.460938 411.121094 C 520.046875 411.710938 521.570312 412.53125 522.921875 413.585938 C 524.152344 414.585938 525.210938 415.816406 525.972656 417.167969 C 526.796875 418.515625 527.382812 419.984375 527.734375 421.507812 C 528.085938 423.09375 528.261719 424.679688 528.261719 426.261719 C 528.261719 428.316406 527.96875 430.371094 527.265625 432.367188 C 526.675781 434.066406 525.738281 435.59375 524.507812 436.824219 C 523.273438 438.058594 521.808594 438.996094 520.164062 439.582031 C 518.34375 440.230469 516.40625 440.582031 514.53125 440.523438 C 512.652344 440.523438 510.773438 440.289062 509.015625 439.699219 C 507.429688 439.230469 505.960938 438.46875 504.671875 437.351562 C 503.4375 436.296875 502.441406 435.007812 501.855469 433.539062 C 501.152344 431.894531 500.738281 430.136719 500.796875 428.375 C 500.738281 427.023438 500.917969 425.734375 501.210938 424.382812 C 501.503906 423.152344 501.972656 421.980469 502.675781 420.980469 C 503.320312 419.984375 504.261719 419.160156 505.316406 418.574219 C 506.550781 417.929688 507.898438 417.636719 509.25 417.636719 C 509.660156 417.636719 510.128906 417.695312 510.539062 417.753906 C 511.183594 417.871094 511.714844 418.164062 512.242188 418.515625 C 512.886719 419.160156 513.296875 419.984375 513.414062 420.863281 C 513.472656 421.980469 513.355469 423.152344 513.0625 424.207031 C 512.59375 425.851562 512.535156 427.203125 512.886719 428.140625 C 513.0625 428.84375 513.707031 429.371094 514.414062 429.3125 C 514.941406 429.253906 515.410156 428.902344 515.644531 428.433594 C 516.171875 427.496094 516.46875 426.496094 516.40625 425.382812 C 516.46875 424.324219 516.230469 423.328125 515.820312 422.390625 C 515.46875 421.625 514.824219 421.097656 514.0625 420.863281 Z M 515.644531 417.8125 " fill-opacity="1" fill-rule="nonzero"/><path fill="#680c0d" d="M 542.226562 424.855469 C 543.636719 425.558594 544.808594 426.613281 545.574219 427.964844 C 546.394531 429.3125 546.804688 430.898438 546.746094 432.484375 C 546.746094 433.597656 546.511719 434.769531 546.101562 435.828125 C 545.691406 436.765625 545.105469 437.648438 544.398438 438.351562 C 543.636719 439.054688 542.699219 439.582031 541.757812 439.992188 C 540.703125 440.40625 539.585938 440.582031 538.414062 440.582031 C 536.710938 440.640625 535.011719 440.230469 533.542969 439.40625 C 532.3125 438.703125 531.3125 437.707031 530.667969 436.472656 C 530.023438 435.242188 529.671875 433.949219 529.613281 432.601562 C 529.496094 431.25 529.613281 429.902344 529.964844 428.550781 C 531.253906 428.960938 532.605469 428.960938 533.894531 428.609375 C 534.953125 428.199219 535.832031 427.496094 536.535156 426.613281 C 537.359375 425.675781 537.652344 424.441406 537.417969 423.210938 C 537.183594 422.039062 536.066406 421.214844 534.894531 421.332031 C 534.304688 421.332031 533.660156 421.507812 533.132812 421.742188 C 532.546875 422.039062 532.019531 422.332031 531.546875 422.800781 L 530.550781 419.515625 C 531.136719 419.042969 531.78125 418.632812 532.488281 418.339844 C 533.308594 417.988281 534.1875 417.753906 535.070312 417.753906 C 536.300781 417.695312 537.535156 417.988281 538.648438 418.574219 C 539.527344 419.101562 540.234375 419.925781 540.703125 420.921875 C 541.464844 419.984375 542.464844 419.160156 543.519531 418.574219 C 544.808594 417.929688 546.277344 417.695312 547.6875 417.753906 C 550.328125 417.871094 552.734375 419.160156 554.257812 421.273438 C 555.078125 422.390625 555.726562 423.679688 556.019531 425.03125 C 556.429688 426.554688 556.605469 428.199219 556.546875 429.785156 C 556.546875 431.191406 556.253906 432.542969 555.785156 433.832031 C 555.375 435.007812 554.785156 436.179688 554.023438 437.175781 C 553.261719 438.117188 552.378906 438.9375 551.382812 439.523438 C 550.386719 440.171875 549.210938 440.582031 548.039062 440.699219 L 547.097656 437.292969 C 547.980469 437.117188 548.742188 436.707031 549.386719 436.121094 C 550.03125 435.59375 550.5625 434.949219 550.914062 434.183594 C 551.265625 433.421875 551.558594 432.660156 551.734375 431.835938 C 551.910156 431.074219 552.027344 430.253906 552.027344 429.429688 C 552.085938 428.492188 552.027344 427.613281 551.851562 426.671875 C 551.675781 425.734375 551.382812 424.855469 550.972656 424.03125 C 550.621094 423.210938 550.09375 422.566406 549.445312 421.980469 C 548.800781 421.449219 547.980469 421.214844 547.15625 421.214844 C 546.21875 421.273438 545.339844 421.625 544.632812 422.273438 C 543.695312 423.09375 542.933594 423.914062 542.226562 424.855469 Z M 539.882812 427.964844 C 539.234375 429.078125 538.355469 430.019531 537.359375 430.78125 C 536.359375 431.601562 535.128906 432.011719 533.835938 432.070312 C 533.71875 433.714844 534.1875 435.007812 535.1875 435.945312 C 536.066406 436.707031 537.183594 437.058594 538.296875 437.058594 C 539.527344 437.117188 540.761719 436.648438 541.582031 435.769531 C 542.40625 434.890625 542.875 433.714844 542.816406 432.484375 C 542.816406 431.542969 542.582031 430.605469 542.050781 429.785156 C 541.523438 428.960938 540.761719 428.316406 539.882812 427.964844 Z M 539.882812 427.964844 " fill-opacity="1" fill-rule="nonzero"/><path fill="#680c0d" d="M 551.617188 421.390625 C 550.328125 420.160156 548.800781 419.21875 547.039062 418.632812 L 547.039062 410.183594 L 551.617188 410.183594 Z M 551.617188 421.390625 " fill-opacity="1" fill-rule="nonzero"/><path fill="#680c0d" d="M 579.023438 436.882812 C 580.078125 436.941406 581.074219 436.355469 581.605469 435.476562 C 582.132812 434.417969 582.484375 433.246094 582.484375 432.070312 L 585.710938 432.070312 C 585.652344 433.246094 585.945312 434.359375 586.476562 435.417969 C 586.945312 436.355469 587.941406 436.941406 589.058594 436.941406 C 589.9375 437 590.757812 436.648438 591.34375 435.945312 C 591.933594 435.242188 592.402344 434.417969 592.578125 433.480469 C 592.929688 432.1875 593.105469 430.839844 593.164062 429.488281 C 593.222656 428.082031 593.164062 426.613281 592.929688 425.207031 C 592.753906 423.796875 592.402344 422.449219 591.875 421.097656 C 591.402344 419.867188 590.757812 418.691406 589.9375 417.636719 C 588.941406 416.402344 587.648438 415.347656 586.179688 414.703125 C 584.480469 413.9375 582.660156 413.527344 580.78125 413.527344 C 579.199219 413.527344 577.613281 413.644531 576.089844 413.9375 C 574.621094 414.234375 573.210938 414.703125 571.863281 415.347656 L 570.6875 412.0625 C 572.214844 411.355469 573.800781 410.828125 575.441406 410.476562 C 577.203125 410.125 578.964844 409.949219 580.722656 409.949219 C 583.1875 409.890625 585.710938 410.300781 588.058594 411.121094 C 590.054688 411.886719 591.933594 413.058594 593.398438 414.585938 C 594.632812 415.933594 595.628906 417.519531 596.332031 419.21875 C 597.097656 421.097656 597.625 423.035156 597.859375 425.03125 C 598.152344 427.023438 598.152344 429.019531 597.917969 431.015625 C 597.742188 432.894531 597.214844 434.710938 596.390625 436.414062 C 595.804688 437.648438 594.925781 438.644531 593.808594 439.40625 C 592.519531 440.230469 591.050781 440.640625 589.585938 440.582031 C 588.410156 440.640625 587.179688 440.347656 586.121094 439.816406 C 585.183594 439.347656 584.421875 438.585938 583.953125 437.589844 C 583.480469 438.585938 582.71875 439.347656 581.78125 439.816406 C 580.722656 440.347656 579.550781 440.640625 578.375 440.582031 C 575.734375 440.699219 573.328125 439.289062 572.039062 437 C 571.394531 435.945312 570.925781 434.710938 570.6875 433.480469 C 570.394531 432.25 570.277344 430.957031 570.277344 429.667969 C 570.21875 428.375 570.335938 427.144531 570.511719 425.851562 C 570.6875 424.621094 571.042969 423.386719 571.570312 422.273438 C 572.15625 420.980469 573.09375 419.808594 574.269531 418.984375 C 575.617188 418.105469 577.144531 417.695312 578.730469 417.695312 C 579.140625 417.695312 579.492188 417.753906 579.902344 417.8125 C 580.488281 417.871094 581.015625 418.105469 581.488281 418.457031 C 582.015625 418.867188 582.425781 419.457031 582.660156 420.101562 C 582.894531 421.15625 582.894531 422.214844 582.660156 423.210938 C 582.484375 423.855469 582.367188 424.5625 582.425781 425.265625 C 582.542969 426.085938 583.011719 426.554688 583.777344 426.554688 C 584.246094 426.554688 584.65625 426.378906 584.949219 426.027344 C 585.417969 425.324219 585.652344 424.441406 585.59375 423.621094 C 585.652344 422.917969 585.476562 422.15625 585.183594 421.507812 C 584.949219 420.921875 584.539062 420.394531 584.070312 419.984375 L 586.476562 417.460938 C 587.355469 418.105469 588 418.984375 588.46875 419.984375 C 588.941406 420.980469 589.234375 422.039062 589.292969 423.152344 C 589.292969 424.148438 589.175781 425.148438 588.878906 426.144531 C 588.644531 426.90625 588.234375 427.613281 587.707031 428.257812 C 587.238281 428.785156 586.59375 429.253906 585.945312 429.546875 C 585.242188 429.84375 584.539062 429.960938 583.777344 429.960938 C 582.835938 429.960938 581.957031 429.84375 581.074219 429.546875 C 579.609375 429.019531 578.613281 427.730469 578.375 426.203125 C 578.257812 425.265625 578.375 424.265625 578.613281 423.386719 C 578.964844 422.097656 578.789062 421.449219 578.082031 421.449219 C 577.027344 421.449219 576.207031 422.332031 575.675781 424.089844 C 575.382812 424.972656 575.207031 425.910156 575.148438 426.90625 C 575.089844 427.847656 575.03125 428.785156 575.089844 429.785156 C 575.089844 430.78125 575.148438 431.71875 575.324219 432.71875 C 575.441406 433.773438 575.792969 434.769531 576.324219 435.652344 C 577.027344 436.355469 578.023438 436.882812 579.023438 436.882812 Z M 579.023438 436.882812 " fill-opacity="1" fill-rule="nonzero"/><path fill="#680c0d" d="M 624.089844 437.472656 C 623.210938 438.410156 622.152344 439.230469 620.921875 439.757812 C 619.746094 440.289062 618.457031 440.523438 617.164062 440.523438 C 615.699219 440.582031 614.289062 440.230469 613 439.640625 C 611.824219 439.054688 610.828125 438.117188 610.183594 437 C 609.476562 435.710938 609.125 434.242188 609.183594 432.777344 C 609.125 431.425781 609.417969 430.136719 610.066406 428.902344 C 610.535156 427.789062 611.472656 426.964844 612.648438 426.671875 C 612.824219 425.324219 612.53125 423.972656 611.882812 422.800781 C 611.296875 421.800781 610.183594 421.273438 609.066406 421.332031 C 608.1875 421.332031 607.308594 421.625 606.601562 422.097656 C 605.957031 422.625 605.371094 423.269531 605.078125 424.089844 C 604.667969 424.914062 604.371094 425.792969 604.253906 426.730469 C 604.078125 427.613281 604.019531 428.550781 604.019531 429.429688 C 604.019531 430.253906 604.136719 431.015625 604.3125 431.835938 C 604.429688 432.660156 604.667969 433.480469 605.078125 434.242188 C 605.429688 435.007812 605.898438 435.652344 606.484375 436.238281 C 607.132812 436.824219 607.835938 437.234375 608.65625 437.410156 L 607.601562 440.816406 C 606.484375 440.640625 605.371094 440.230469 604.429688 439.640625 C 603.433594 438.996094 602.554688 438.175781 601.847656 437.234375 C 601.085938 436.179688 600.5 435.066406 600.089844 433.832031 C 599.679688 432.484375 599.445312 431.132812 599.445312 429.726562 C 599.386719 428.082031 599.621094 426.496094 600.089844 424.914062 C 600.5 423.5625 601.203125 422.273438 602.085938 421.214844 C 602.90625 420.21875 603.902344 419.339844 605.019531 418.75 C 606.132812 418.164062 607.367188 417.8125 608.65625 417.753906 C 610.125 417.636719 611.648438 417.988281 612.941406 418.691406 C 614.113281 419.335938 615.054688 420.335938 615.757812 421.449219 C 616.402344 422.625 616.8125 423.914062 616.988281 425.265625 C 617.105469 426.671875 616.988281 428.023438 616.578125 429.371094 C 615.757812 429.3125 614.9375 429.664062 614.464844 430.371094 C 613.175781 432.070312 613.351562 434.476562 614.820312 436.0625 C 615.640625 436.707031 616.695312 437 617.753906 436.882812 C 618.574219 436.824219 619.335938 436.53125 619.921875 436.003906 C 620.511719 435.476562 620.980469 434.769531 621.273438 434.066406 C 621.625 433.128906 621.917969 432.1875 622.035156 431.25 C 622.210938 430.136719 622.269531 429.019531 622.328125 427.90625 C 622.328125 426.789062 622.269531 425.675781 622.09375 424.5625 C 621.976562 423.5625 621.742188 422.625 621.449219 421.683594 C 620.921875 420.335938 620.101562 419.101562 619.042969 418.105469 C 617.929688 417.109375 616.636719 416.402344 615.230469 415.992188 C 613.585938 415.464844 611.824219 415.289062 610.125 415.347656 C 608.890625 415.347656 607.542969 415.464844 606.132812 415.582031 C 604.726562 415.699219 603.257812 415.875 601.789062 416.050781 L 600.5 412.648438 C 601.144531 412.53125 601.847656 412.472656 602.671875 412.355469 C 602.203125 411.945312 601.96875 411.355469 601.96875 410.710938 C 601.96875 410.125 602.085938 409.480469 602.4375 409.011719 C 602.847656 408.304688 603.433594 407.777344 604.136719 407.367188 C 604.902344 406.898438 605.664062 406.546875 606.484375 406.308594 C 607.367188 406.074219 608.246094 405.898438 609.125 405.78125 C 609.949219 405.664062 610.769531 405.664062 611.53125 405.664062 C 612.882812 405.664062 614.230469 405.78125 615.582031 406.015625 C 616.929688 406.25 618.28125 406.605469 619.628906 407.015625 C 620.921875 407.425781 622.152344 407.953125 623.328125 408.539062 C 624.441406 409.128906 625.5 409.890625 626.496094 410.710938 L 624.675781 414.113281 C 623.796875 413.351562 622.859375 412.707031 621.859375 412.179688 C 620.804688 411.652344 619.746094 411.179688 618.632812 410.769531 C 617.519531 410.417969 616.402344 410.066406 615.230469 409.890625 C 614.113281 409.714844 612.941406 409.597656 611.765625 409.539062 C 611.53125 409.539062 611.179688 409.539062 610.710938 409.597656 C 610.242188 409.597656 609.714844 409.65625 609.242188 409.773438 C 607.953125 410.007812 607.25 410.359375 607.191406 410.886719 C 607.132812 411.179688 607.191406 411.472656 607.484375 411.652344 C 607.71875 411.828125 608.011719 411.886719 608.304688 411.886719 C 609.125 411.886719 609.714844 411.828125 610.125 411.828125 C 611.941406 411.769531 613.703125 411.945312 615.464844 412.296875 C 617.046875 412.589844 618.632812 413.117188 620.101562 413.878906 C 621.332031 414.527344 622.503906 415.347656 623.503906 416.34375 C 624.5 417.402344 625.265625 418.574219 625.851562 419.867188 C 626.4375 421.214844 626.847656 422.683594 627.023438 424.148438 C 627.257812 425.792969 627.257812 427.4375 627.140625 429.078125 C 627.023438 430.664062 626.671875 432.25 626.203125 433.773438 C 625.734375 435.066406 625.027344 436.355469 624.089844 437.472656 Z M 624.089844 437.472656 " fill-opacity="1" fill-rule="nonzero"/><path fill="#680c0d" d="M 656.128906 428.492188 C 656.128906 430.253906 655.835938 432.011719 655.25 433.714844 C 654.78125 435.125 654.019531 436.355469 653.078125 437.472656 C 652.199219 438.46875 651.144531 439.230469 649.96875 439.757812 C 648.796875 440.289062 647.503906 440.582031 646.214844 440.582031 C 645.214844 440.582031 644.160156 440.464844 643.160156 440.113281 C 642.222656 439.816406 641.34375 439.347656 640.636719 438.703125 C 639.875 438.058594 639.230469 437.234375 638.878906 436.296875 C 638.410156 435.183594 638.175781 434.007812 638.234375 432.835938 C 638.234375 431.484375 638.527344 430.195312 639.113281 428.960938 C 639.582031 427.847656 640.519531 427.085938 641.636719 426.730469 C 641.8125 425.382812 641.578125 424.03125 640.933594 422.859375 C 640.285156 421.921875 639.230469 421.332031 638.054688 421.390625 C 637.175781 421.390625 636.296875 421.683594 635.59375 422.15625 C 634.945312 422.683594 634.417969 423.328125 634.007812 424.089844 C 633.597656 424.914062 633.304688 425.792969 633.128906 426.730469 C 633.011719 427.613281 632.890625 428.492188 632.949219 429.371094 C 632.949219 430.195312 633.070312 431.015625 633.246094 431.835938 C 633.421875 432.660156 633.65625 433.480469 634.007812 434.242188 C 634.359375 435.007812 634.828125 435.652344 635.414062 436.238281 C 636.003906 436.824219 636.765625 437.234375 637.585938 437.414062 L 636.53125 440.816406 C 635.414062 440.699219 634.300781 440.289062 633.304688 439.640625 C 632.304688 438.996094 631.425781 438.175781 630.722656 437.234375 C 629.957031 436.238281 629.371094 435.066406 628.960938 433.832031 C 628.492188 432.484375 628.257812 431.132812 628.257812 429.726562 C 628.199219 428.082031 628.433594 426.496094 628.902344 424.914062 C 629.3125 423.5625 629.957031 422.273438 630.839844 421.15625 C 631.660156 420.160156 632.65625 419.277344 633.773438 418.691406 C 634.886719 418.105469 636.121094 417.753906 637.410156 417.695312 C 640.285156 417.460938 642.984375 418.925781 644.453125 421.390625 C 645.097656 422.566406 645.507812 423.855469 645.683594 425.207031 C 645.800781 426.613281 645.683594 427.964844 645.273438 429.3125 C 644.453125 429.253906 643.632812 429.605469 643.160156 430.253906 C 642.574219 431.015625 642.28125 431.953125 642.339844 432.894531 C 642.222656 434.066406 642.691406 435.242188 643.574219 436.003906 C 644.394531 436.648438 645.449219 436.941406 646.507812 436.824219 C 648.089844 436.707031 649.324219 435.769531 650.085938 434.007812 C 650.4375 433.1875 650.671875 432.308594 650.789062 431.425781 C 650.90625 430.488281 651.023438 429.546875 651.082031 428.609375 C 651.144531 426.613281 650.964844 424.5625 650.496094 422.625 C 650.027344 420.804688 649.265625 419.101562 648.148438 417.578125 C 647.152344 416.34375 645.859375 415.347656 644.453125 414.644531 C 642.75 413.878906 640.933594 413.46875 639.113281 413.46875 C 637.527344 413.46875 635.886719 413.585938 634.359375 413.9375 C 632.890625 414.234375 631.484375 414.703125 630.132812 415.347656 L 629.019531 412.0625 C 630.546875 411.355469 632.1875 410.828125 633.832031 410.535156 C 635.59375 410.183594 637.351562 410.007812 639.113281 410.007812 C 641.578125 409.949219 644.042969 410.359375 646.390625 411.179688 C 648.382812 411.945312 650.203125 413.117188 651.671875 414.644531 C 652.433594 415.523438 653.136719 416.460938 653.664062 417.460938 C 654.253906 418.574219 654.722656 419.691406 655.074219 420.863281 C 655.425781 422.097656 655.71875 423.386719 655.894531 424.621094 C 656.070312 425.851562 656.128906 427.144531 656.128906 428.492188 Z M 656.128906 428.492188 " fill-opacity="1" fill-rule="nonzero"/><path fill="#680c0d" d="M 671.035156 436.882812 C 672.269531 436.882812 673.5 436.648438 674.617188 436.179688 C 675.730469 435.710938 676.667969 435.007812 677.433594 434.125 C 678.253906 433.1875 678.898438 432.070312 679.25 430.839844 C 679.722656 429.429688 679.957031 427.90625 679.898438 426.4375 C 679.957031 424.441406 679.664062 422.449219 678.898438 420.570312 C 678.3125 419.101562 677.433594 417.753906 676.316406 416.695312 C 675.144531 415.640625 673.792969 414.878906 672.328125 414.351562 C 670.859375 413.878906 669.335938 413.585938 667.75 413.527344 C 666.164062 413.527344 664.582031 413.644531 662.996094 413.996094 C 661.53125 414.292969 660.121094 414.761719 658.769531 415.40625 L 657.597656 412.121094 C 659.066406 411.414062 660.589844 410.945312 662.175781 410.59375 C 664.171875 410.183594 666.164062 410.007812 668.160156 410.007812 C 670.449219 410.007812 672.738281 410.417969 674.910156 411.121094 C 676.550781 411.652344 678.078125 412.53125 679.425781 413.585938 C 680.601562 414.585938 681.65625 415.816406 682.480469 417.167969 C 683.242188 418.515625 683.886719 419.984375 684.238281 421.507812 C 684.589844 423.09375 684.769531 424.679688 684.769531 426.261719 C 684.769531 428.316406 684.414062 430.371094 683.710938 432.367188 C 683.125 434.066406 682.125 435.59375 680.894531 436.824219 C 679.664062 438.058594 678.195312 438.996094 676.550781 439.582031 C 674.734375 440.230469 672.855469 440.582031 670.917969 440.523438 C 669.039062 440.523438 667.164062 440.289062 665.402344 439.757812 C 663.816406 439.289062 662.351562 438.527344 661.058594 437.472656 C 659.828125 436.414062 658.890625 435.125 658.242188 433.714844 C 657.539062 432.070312 657.1875 430.3125 657.1875 428.550781 C 657.1875 427.144531 657.421875 425.792969 657.832031 424.441406 C 658.242188 423.152344 658.949219 421.980469 659.886719 420.921875 C 660.824219 419.867188 661.941406 419.042969 663.230469 418.457031 C 664.699219 417.871094 666.222656 417.578125 667.808594 417.636719 C 668.980469 417.695312 670.15625 417.871094 671.269531 418.28125 L 669.921875 421.566406 C 669.335938 421.390625 668.746094 421.332031 668.160156 421.332031 C 667.222656 421.332031 666.28125 421.566406 665.460938 421.980469 C 664.699219 422.390625 664.054688 422.976562 663.582031 423.679688 C 663.113281 424.382812 662.761719 425.207031 662.527344 426.027344 C 662.292969 426.90625 662.175781 427.789062 662.175781 428.667969 C 662.175781 429.84375 662.410156 430.957031 662.820312 432.070312 C 663.699219 434.066406 665.34375 435.59375 667.398438 436.296875 C 668.628906 436.648438 669.804688 436.824219 671.035156 436.882812 Z M 671.035156 436.882812 " fill-opacity="1" fill-rule="nonzero"/></svg>