<svg xmlns="http://www.w3.org/2000/svg" xmlns:xlink="http://www.w3.org/1999/xlink" width="1366" zoomAndPan="magnify" viewBox="0 0 1024.5 576" height="768" preserveAspectRatio="xMidYMid meet" version="1.0"><defs><clipPath id="368aff33b9"><path d="M 0 0.140625 L 1024 0.140625 L 1024 575.859375 L 0 575.859375 Z M 0 0.140625 " clip-rule="nonzero"/></clipPath><clipPath id="e0737df019"><path d="M 281 167.203125 L 370 167.203125 L 370 280 L 281 280 Z M 281 167.203125 " clip-rule="nonzero"/></clipPath><clipPath id="bd34702702"><path d="M 377 167.203125 L 477 167.203125 L 477 280 L 377 280 Z M 377 167.203125 " clip-rule="nonzero"/></clipPath><clipPath id="4ff4579e8a"><path d="M 749 167.203125 L 854 167.203125 L 854 280 L 749 280 Z M 749 167.203125 " clip-rule="nonzero"/></clipPath><clipPath id="91cc9a403a"><path d="M 487 167.203125 L 740 167.203125 L 740 408.582031 L 487 408.582031 Z M 487 167.203125 " clip-rule="nonzero"/></clipPath></defs><g clip-path="url(#368aff33b9)"><path fill="#ffffff" d="M 0 0.140625 L 1024 0.140625 L 1024 575.859375 L 0 575.859375 Z M 0 0.140625 " fill-opacity="1" fill-rule="nonzero"/><path fill="#ffffff" d="M 0 0.140625 L 1024 0.140625 L 1024 575.859375 L 0 575.859375 Z M 0 0.140625 " fill-opacity="1" fill-rule="nonzero"/></g><g clip-path="url(#e0737df019)"><path fill="#000000" d="M 282.0625 167.582031 L 369.101562 167.582031 L 369.484375 168.089844 L 369.484375 191.316406 L 369.101562 191.820312 L 316.246094 191.820312 L 316.246094 206.417969 L 364.402344 206.417969 L 364.78125 206.925781 L 364.78125 233.195312 L 364.402344 233.703125 L 316.246094 233.703125 L 316.246094 279.261719 L 315.863281 279.769531 L 282.0625 279.769531 L 281.683594 279.261719 L 281.683594 168.089844 Z M 282.0625 167.582031 " fill-opacity="1" fill-rule="nonzero"/></g><g clip-path="url(#bd34702702)"><path fill="#000000" d="M 454.617188 167.582031 C 454.871094 167.582031 455.761719 171.769531 457.160156 180.019531 C 467.449219 232.476562 473.847656 265.640625 476.34375 279.515625 L 476.089844 279.769531 L 441.785156 279.769531 C 441.402344 279.769531 440.511719 273.804688 439.371094 262.003906 C 439.242188 262.003906 439.117188 261.367188 438.988281 260.097656 L 415.355469 260.097656 C 414.972656 260.097656 414.339844 265.175781 413.320312 275.457031 C 412.941406 278.375 412.6875 279.898438 412.304688 279.898438 L 377.742188 279.898438 C 378.886719 272.664062 386.128906 235.351562 399.21875 167.710938 Z M 427.042969 198.039062 L 421.328125 231.671875 L 433.015625 231.671875 L 427.296875 198.039062 Z M 427.042969 198.039062 " fill-opacity="1" fill-rule="nonzero"/></g><g clip-path="url(#4ff4579e8a)"><path fill="#000000" d="M 749.660156 167.582031 L 853.089844 167.582031 L 853.472656 168.089844 L 853.472656 191.316406 L 853.089844 191.820312 L 818.78125 191.820312 L 818.78125 279.390625 L 818.402344 279.898438 L 784.601562 279.898438 L 784.222656 279.390625 L 784.222656 191.820312 L 749.660156 191.820312 L 749.277344 191.316406 L 749.277344 168.089844 Z M 749.660156 167.582031 " fill-opacity="1" fill-rule="nonzero"/></g><path fill="#000000" d="M 196.675781 295.761719 L 245.597656 295.761719 C 253.222656 295.761719 260.082031 299.820312 266.308594 307.945312 C 269.738281 313.402344 271.390625 318.476562 271.390625 323.046875 L 271.390625 338.148438 L 271.011719 338.65625 L 236.703125 338.65625 L 236.320312 338.148438 L 236.320312 330.535156 C 236.320312 323.425781 234.414062 319.746094 230.601562 319.746094 L 211.671875 319.746094 C 207.859375 319.746094 205.953125 323.300781 205.953125 330.535156 L 205.953125 370.257812 C 205.953125 375.585938 207.351562 379.015625 210.273438 380.535156 L 231.238281 380.535156 C 234.289062 380.535156 235.941406 377.238281 236.320312 370.511719 L 236.320312 357.820312 L 236.703125 357.3125 L 271.011719 357.3125 L 271.390625 357.820312 L 271.390625 379.773438 C 271.390625 388.40625 267.324219 396.019531 259.191406 402.746094 C 254.617188 406.171875 249.027344 407.824219 242.167969 407.824219 L 200.109375 407.824219 C 186.511719 407.824219 177.109375 400.84375 171.898438 386.882812 C 171.136719 383.5 170.753906 380.070312 170.757812 376.601562 L 170.757812 326.601562 C 170.757812 312.132812 177.238281 302.234375 190.324219 296.902344 C 192.382812 296.183594 194.5 295.804688 196.675781 295.761719 Z M 196.675781 295.761719 " fill-opacity="1" fill-rule="nonzero"/><path fill="#000000" d="M 279.394531 295.761719 L 313.195312 295.761719 L 313.578125 296.269531 L 313.578125 334.59375 L 345.976562 334.59375 L 345.976562 296.269531 L 346.359375 295.761719 L 379.902344 295.761719 L 380.285156 296.269531 L 380.285156 407.441406 L 379.902344 407.949219 L 346.359375 407.949219 L 345.976562 407.441406 L 345.976562 361.882812 L 313.578125 361.882812 L 313.578125 407.441406 L 313.195312 407.949219 L 279.394531 407.949219 L 279.015625 407.441406 L 279.015625 296.269531 Z M 279.394531 295.761719 " fill-opacity="1" fill-rule="nonzero"/><path fill="#000000" d="M 390.703125 295.761719 L 476.089844 295.761719 L 476.472656 296.269531 L 476.472656 319.492188 L 476.089844 320 L 424.757812 320 L 424.757812 334.59375 L 472.152344 334.59375 L 472.53125 335.101562 L 472.53125 361.375 L 472.152344 361.882812 L 424.757812 361.882812 L 424.757812 380.664062 L 476.089844 380.664062 L 476.472656 381.171875 L 476.472656 407.441406 L 476.089844 407.949219 L 390.703125 407.949219 L 390.324219 407.441406 L 390.324219 296.269531 Z M 390.703125 295.761719 " fill-opacity="1" fill-rule="nonzero"/><path fill="#000000" d="M 754.613281 296.015625 L 788.414062 296.015625 L 788.796875 296.523438 L 788.796875 343.097656 L 814.589844 296.015625 L 848.386719 296.015625 L 848.769531 296.523438 C 833.269531 324.695312 823.863281 341.828125 820.816406 348.175781 L 820.816406 348.429688 L 852.328125 407.695312 L 852.074219 407.949219 L 816.621094 407.949219 C 815.988281 407.441406 811.414062 398.9375 802.773438 382.3125 C 793.878906 366.070312 789.304688 357.3125 788.921875 356.171875 L 788.667969 356.171875 L 788.667969 407.316406 L 788.289062 407.824219 L 754.488281 407.824219 L 754.105469 407.316406 L 754.105469 296.394531 Z M 754.613281 296.015625 " fill-opacity="1" fill-rule="nonzero"/><g clip-path="url(#91cc9a403a)"><path fill="#632d51" d="M 552.328125 167.203125 L 674.820312 167.203125 C 693.878906 167.203125 711.160156 175.957031 726.660156 193.472656 C 735.175781 205.148438 739.496094 216.0625 739.496094 225.960938 L 739.496094 258.449219 L 738.476562 259.464844 L 678.121094 259.464844 L 677.105469 258.449219 L 677.105469 242.207031 C 677.105469 226.847656 672.277344 219.109375 662.746094 219.109375 L 566.6875 219.109375 C 557.15625 219.109375 552.328125 226.847656 552.328125 242.207031 L 552.328125 327.742188 C 552.328125 339.164062 556.015625 346.523438 563.257812 349.824219 L 661.984375 349.824219 C 669.480469 349.824219 673.800781 342.589844 674.820312 328.25 L 674.820312 300.964844 L 675.835938 299.949219 L 738.605469 299.949219 L 739.621094 300.964844 L 739.621094 348.175781 C 739.621094 366.832031 729.457031 383.203125 709 397.542969 C 697.5625 404.902344 683.460938 408.582031 666.558594 408.582031 L 560.84375 408.582031 C 526.664062 408.582031 503.113281 393.523438 490.195312 363.402344 C 488.199219 356.179688 487.226562 348.816406 487.273438 341.320312 L 487.273438 233.828125 C 487.273438 202.738281 503.535156 181.289062 536.191406 169.738281 C 541.457031 168.160156 546.835938 167.316406 552.328125 167.203125 Z M 552.328125 167.203125 " fill-opacity="1" fill-rule="nonzero"/></g><path fill="#632d51" d="M 591.082031 304.136719 C 591.082031 304.136719 580.792969 284.464844 569.992188 285.101562 C 568.46875 285.148438 566.984375 285.402344 565.535156 285.863281 C 564.082031 286.324219 562.722656 286.976562 561.453125 287.816406 C 560.1875 288.660156 559.058594 289.65625 558.070312 290.8125 C 557.078125 291.96875 556.265625 293.238281 555.632812 294.617188 C 555.632812 294.617188 565.671875 283.195312 584.984375 336.5 C 587.144531 340.6875 587.144531 341.449219 589.558594 341.703125 C 591.972656 341.957031 592.226562 339.546875 595.023438 334.46875 C 597.816406 329.390625 639.621094 256.417969 664.90625 241.699219 C 665.796875 241.445312 672.914062 235.859375 672.914062 235.859375 C 672.914062 235.859375 672.023438 231.164062 667.957031 232.558594 C 663.890625 233.957031 627.171875 255.785156 609.253906 279.898438 Z M 591.082031 304.136719 " fill-opacity="1" fill-rule="nonzero"/></svg>