<svg xmlns="http://www.w3.org/2000/svg" xmlns:xlink="http://www.w3.org/1999/xlink" width="1366" zoomAndPan="magnify" viewBox="0 0 1024.5 576" height="768" preserveAspectRatio="xMidYMid meet" version="1.0"><defs><clipPath id="54c7303ac5"><path d="M 0 0.140625 L 1024 0.140625 L 1024 575.859375 L 0 575.859375 Z M 0 0.140625 " clip-rule="nonzero"/></clipPath><clipPath id="062aec54e2"><path d="M 48.265625 204.527344 L 240 204.527344 L 240 371 L 48.265625 371 Z M 48.265625 204.527344 " clip-rule="nonzero"/></clipPath><clipPath id="7c41cbf0db"><path d="M 265 204.527344 L 335 204.527344 L 335 283 L 265 283 Z M 265 204.527344 " clip-rule="nonzero"/></clipPath><clipPath id="7ae71ada5e"><path d="M 348 204.527344 L 417 204.527344 L 417 282 L 348 282 Z M 348 204.527344 " clip-rule="nonzero"/></clipPath><clipPath id="c8453f56c3"><path d="M 341 292 L 421 292 L 421 371.695312 L 341 371.695312 Z M 341 292 " clip-rule="nonzero"/></clipPath><clipPath id="00af981fce"><path d="M 485 293 L 555 293 L 555 371.695312 L 485 371.695312 Z M 485 293 " clip-rule="nonzero"/></clipPath><clipPath id="f57ebf6666"><path d="M 912 292 L 975.5625 292 L 975.5625 371.695312 L 912 371.695312 Z M 912 292 " clip-rule="nonzero"/></clipPath></defs><g clip-path="url(#54c7303ac5)"><path fill="#ffffff" d="M 0 0.140625 L 1024 0.140625 L 1024 575.859375 L 0 575.859375 Z M 0 0.140625 " fill-opacity="1" fill-rule="nonzero"/><path fill="#ffffff" d="M 0 0.140625 L 1024 0.140625 L 1024 575.859375 L 0 575.859375 Z M 0 0.140625 " fill-opacity="1" fill-rule="nonzero"/></g><path fill="#ffffff" d="M 55.929688 210.878906 L 232.402344 210.878906 L 232.402344 364.117188 L 55.929688 364.117188 Z M 55.929688 210.878906 " fill-opacity="1" fill-rule="nonzero"/><path fill="#009edb" d="M 145.390625 253.5625 C 150.398438 253.898438 155.070312 255.902344 158.964844 259.136719 C 160.746094 257.242188 162.859375 254.789062 164.863281 253.5625 C 159.300781 248.996094 152.402344 246.207031 145.277344 245.652344 C 145.613281 248.324219 145.613281 250.890625 145.390625 253.5625 Z M 145.390625 253.5625 " fill-opacity="1" fill-rule="nonzero"/><path fill="#009edb" d="M 145.390625 318.871094 C 147.28125 318.089844 149.953125 318.203125 151.734375 317.867188 C 150.730469 316.863281 149.0625 316.976562 148.726562 315.304688 C 147.949219 314.300781 149.0625 313.1875 148.949219 312.296875 C 147.726562 311.738281 145.835938 312.40625 144.945312 311.292969 L 145.5 312.183594 Z M 145.390625 318.871094 " fill-opacity="1" fill-rule="nonzero"/><path fill="#009edb" d="M 174.875 308.839844 C 173.652344 310.511719 172.207031 311.851562 170.539062 312.851562 C 165.085938 314.746094 164.527344 320.765625 159.300781 322.769531 C 157.183594 323.664062 155.960938 320.875 154.179688 320.429688 C 151.398438 320.875 148.394531 321.65625 145.5 321.210938 L 145.5 330.015625 L 145.835938 329.792969 C 158.964844 329.234375 171.425781 323.996094 180.996094 314.96875 C 178.769531 313.1875 176.769531 311.070312 174.875 308.839844 Z M 174.875 308.839844 " fill-opacity="1" fill-rule="nonzero"/><path fill="#009edb" d="M 152.289062 291.789062 C 152.957031 290.898438 154.292969 291.121094 154.515625 290.117188 C 153.402344 290.007812 152.179688 290.785156 152.289062 291.789062 Z M 152.289062 291.789062 " fill-opacity="1" fill-rule="nonzero"/><path fill="#009edb" d="M 189.121094 278.304688 L 188.785156 277.859375 L 189.007812 278.414062 C 188.5625 289.113281 184.222656 299.257812 176.878906 307.058594 C 178.882812 308.839844 181.109375 311.179688 182.886719 313.074219 C 189.785156 305.050781 194.570312 296.023438 196.242188 285.882812 C 196.796875 283.320312 196.6875 280.421875 197.351562 277.859375 C 194.792969 278.640625 191.789062 278.082031 188.898438 278.304688 Z M 189.121094 278.304688 " fill-opacity="1" fill-rule="nonzero"/><path fill="#009edb" d="M 121.132812 255.792969 C 119.242188 258.019531 117.683594 260.363281 116.347656 262.925781 C 114.347656 266.714844 113.679688 271.0625 112.898438 275.296875 L 116.347656 275.183594 C 115.902344 274.402344 115.679688 273.511719 115.902344 272.730469 C 116.683594 271.0625 117.015625 268.050781 119.464844 268.273438 C 120.6875 268.050781 119.464844 267.046875 120.355469 266.601562 C 122.136719 266.378906 122.582031 264.707031 124.136719 263.816406 C 125.585938 263.707031 125.917969 261.699219 127.253906 261.476562 C 124.917969 259.917969 123.246094 257.796875 121.132812 255.792969 Z M 121.132812 255.792969 " fill-opacity="1" fill-rule="nonzero"/><path fill="#009edb" d="M 139.492188 299.035156 C 138.824219 299.144531 138.269531 299.257812 137.601562 299.367188 C 134.261719 298.253906 130.925781 296.804688 128.589844 294.019531 C 126.917969 296.023438 125.027344 297.917969 122.914062 299.703125 L 123.246094 299.703125 C 127.699219 303.601562 133.152344 306.277344 139.046875 307.390625 C 137.046875 307.167969 136.265625 305.164062 135.375 303.714844 C 134.820312 302.488281 136.710938 302.265625 136.378906 301.039062 C 137.046875 299.8125 138.269531 299.035156 139.492188 299.035156 Z M 139.492188 299.035156 " fill-opacity="1" fill-rule="nonzero"/><path fill="#009edb" d="M 147.949219 229.269531 L 151.734375 227.597656 C 153.289062 227.820312 155.40625 227.929688 155.960938 229.492188 C 153.957031 231.71875 151.175781 229.9375 148.839844 231.050781 C 147.949219 230.828125 147.171875 230.496094 146.503906 229.9375 C 146.167969 228.710938 147.503906 229.378906 147.949219 229.269531 Z M 169.089844 234.507812 C 169.757812 234.839844 171.203125 234.394531 171.539062 235.398438 L 171.871094 237.070312 C 170.203125 237.960938 170.203125 235.730469 168.867188 235.621094 C 168.757812 235.285156 168.644531 234.617188 169.089844 234.507812 Z M 145.835938 230.046875 C 146.503906 230.273438 146.613281 231.164062 146.390625 231.832031 C 150.0625 231.71875 153.625 232.390625 157.074219 233.613281 C 160.632812 234.0625 163.859375 238.40625 167.421875 236.179688 C 168.421875 237.292969 170.09375 236.179688 170.648438 237.960938 C 171.984375 238.183594 172.761719 239.632812 173.652344 240.523438 C 173.542969 241.75 174.65625 242.308594 175.097656 243.3125 L 175.097656 243.199219 C 176.324219 241.082031 178.105469 239.296875 180.21875 238.074219 C 172.875 231.050781 163.636719 226.371094 153.625 224.476562 C 150.953125 223.917969 147.839844 224.03125 145.167969 223.363281 C 145.390625 225.8125 145.390625 228.375 145.167969 230.828125 C 145.167969 230.160156 145.613281 230.160156 145.835938 230.046875 Z M 145.835938 230.046875 " fill-opacity="1" fill-rule="nonzero"/><path fill="#009edb" d="M 175.878906 245.652344 C 176.546875 245.652344 176.433594 246.542969 176.878906 246.765625 C 179.214844 248.4375 180.21875 250.667969 182.109375 252.449219 C 182.886719 254.230469 184.78125 255.347656 184.78125 257.574219 C 187.449219 263.035156 188.898438 269.054688 189.121094 275.183594 C 191.902344 274.851562 194.683594 274.738281 197.574219 274.851562 L 197.351562 274.625 C 196.6875 260.917969 191.121094 249.328125 182.21875 239.632812 L 176.769531 245.539062 Z M 175.878906 245.652344 " fill-opacity="1" fill-rule="nonzero"/><path fill="#009edb" d="M 170.09375 277.746094 L 171.539062 279.417969 C 171.425781 281.203125 173.988281 281.871094 174.210938 283.652344 C 174.765625 281.980469 174.65625 279.976562 175.210938 278.304688 C 173.429688 278.082031 171.425781 278.640625 170.09375 277.746094 Z M 170.09375 277.746094 " fill-opacity="1" fill-rule="nonzero"/><path fill="#009edb" d="M 142.386719 321.433594 L 142.273438 321.546875 C 131.371094 321.433594 120.910156 316.976562 113.121094 309.285156 L 107.335938 315.304688 C 117.015625 323.996094 129.367188 329.234375 142.386719 329.902344 L 142.050781 329.234375 C 142.164062 326.785156 141.828125 323.996094 142.386719 321.433594 Z M 142.386719 321.433594 " fill-opacity="1" fill-rule="nonzero"/><path fill="#009edb" d="M 147.28125 266.378906 L 147.949219 266.378906 C 149.617188 264.707031 150.507812 268.496094 152.179688 266.714844 C 152.511719 264.597656 155.515625 264.820312 156.183594 262.703125 C 155.628906 263.257812 155.40625 262.703125 154.960938 262.480469 C 155.070312 261.699219 156.074219 261.253906 156.515625 260.808594 C 153.066406 258.691406 149.285156 257.242188 145.390625 256.683594 L 145.613281 262.367188 L 147.726562 263.148438 C 148.394531 262.035156 149.507812 261.8125 150.175781 260.808594 C 150.84375 260.472656 150.84375 261.363281 151.175781 261.585938 C 151.621094 264.261719 148.839844 265.375 147.28125 266.378906 Z M 147.28125 266.378906 " fill-opacity="1" fill-rule="nonzero"/><path fill="#009edb" d="M 147.394531 297.140625 C 147.28125 299.035156 149.507812 297.585938 150.175781 298.808594 C 150.953125 298.808594 150.953125 297.917969 151.289062 297.363281 C 152.957031 297.140625 154.402344 296.136719 155.515625 294.910156 C 155.738281 294.464844 156.074219 293.460938 155.40625 293.238281 C 154.847656 293.574219 154.402344 293.574219 154.070312 294.242188 C 153.402344 295.132812 152.511719 294.242188 151.957031 293.90625 C 152.179688 294.128906 152.621094 294.796875 152.066406 295.132812 C 151.398438 295.914062 150.730469 294.796875 150.0625 294.574219 C 149.730469 296.914062 148.839844 293.90625 147.617188 294.464844 C 147.058594 293.125 146.167969 294.6875 145.390625 294.574219 C 144.722656 295.132812 144.722656 296.582031 143.5 296.46875 C 143.277344 297.25 142.273438 296.914062 142.164062 297.472656 C 142.71875 298.140625 143.5 297.808594 144.167969 297.695312 C 145.054688 296.691406 146.28125 297.25 147.394531 297.140625 Z M 147.394531 297.140625 " fill-opacity="1" fill-rule="nonzero"/><path fill="#009edb" d="M 157.851562 288.445312 C 157.742188 287.890625 157.742188 287.21875 157.183594 286.773438 C 156.292969 286.773438 156.292969 285.660156 155.851562 285.660156 C 154.738281 287.332031 156.960938 287.21875 157.074219 288.558594 C 157.296875 288.558594 157.628906 288.667969 157.851562 288.445312 Z M 157.851562 288.445312 " fill-opacity="1" fill-rule="nonzero"/><path fill="#009edb" d="M 113.121094 248.214844 C 106.558594 255.679688 102.664062 265.265625 102.105469 275.183594 C 104.777344 275.183594 107.78125 275.074219 110.339844 275.296875 L 110.117188 274.960938 C 110.453125 266.9375 113.679688 259.359375 119.128906 253.5625 C 116.90625 251.78125 115.015625 249.773438 113.234375 247.65625 Z M 113.121094 248.214844 " fill-opacity="1" fill-rule="nonzero"/><path fill="#009edb" d="M 172.761719 306.945312 C 172.207031 307.390625 171.316406 307.167969 170.984375 306.613281 C 170.984375 306.613281 170.984375 306.5 170.871094 306.5 C 170.871094 304.160156 168.089844 303.15625 167.089844 301.261719 L 167.089844 301.375 C 163.195312 304.160156 168.980469 304.269531 169.089844 306.613281 C 168.535156 307.726562 166.421875 308.953125 167.753906 310.289062 C 168.199219 310.734375 167.53125 311.179688 167.421875 311.515625 Z M 172.761719 306.945312 " fill-opacity="1" fill-rule="nonzero"/><path fill="#009edb" d="M 155.628906 296.46875 C 157.296875 297.140625 159.1875 297.140625 160.523438 298.363281 C 161.96875 298.253906 163.859375 298.585938 164.972656 297.695312 C 165.085938 296.691406 165.53125 295.691406 166.199219 294.910156 C 167.199219 295.019531 166.976562 296.246094 167.308594 296.914062 C 170.09375 293.351562 172.429688 290.007812 173.429688 285.769531 C 172.09375 285.660156 171.09375 286.441406 169.648438 286.21875 C 168.089844 285.101562 168.421875 287.21875 167.199219 287.109375 C 166.753906 286.996094 166.644531 286.441406 166.53125 285.996094 C 166.421875 287.21875 165.53125 288.113281 164.75 289.003906 C 162.304688 288.335938 162.972656 291.679688 160.523438 291.007812 C 160.855469 291.902344 161.859375 290.898438 162.414062 291.121094 C 162.859375 290.898438 162.75 290.453125 162.972656 290.230469 C 163.304688 289.335938 164.304688 288.78125 165.195312 289.113281 C 165.195312 289.113281 165.308594 289.113281 165.308594 289.226562 C 165.753906 290.117188 165.976562 291.121094 165.976562 292.125 C 165.53125 292.570312 165.308594 293.238281 165.417969 293.90625 C 164.640625 295.132812 164.972656 297.695312 162.75 297.472656 C 160.410156 296.582031 157.964844 296.023438 155.40625 295.914062 Z M 155.628906 296.46875 " fill-opacity="1" fill-rule="nonzero"/><path fill="#009edb" d="M 176.878906 285.214844 C 175.542969 290.453125 172.984375 295.132812 169.3125 299.144531 L 169.089844 299.144531 C 169.980469 299.703125 170.648438 301.039062 171.761719 301.261719 L 171.761719 300.480469 C 171.984375 300.371094 172.09375 299.925781 172.429688 300.148438 C 174.433594 300.816406 174.65625 303.601562 174.765625 304.941406 C 179.882812 299.480469 183.445312 292.792969 185.113281 285.4375 C 185.671875 282.984375 185.335938 280.085938 186.335938 277.96875 C 183.554688 278.191406 180.773438 278.191406 178.105469 277.859375 C 178.4375 278.863281 177.769531 279.863281 177.882812 280.980469 C 176.769531 282.875 179.328125 283.320312 178.546875 284.992188 C 178.105469 285.4375 177.546875 285.546875 176.878906 285.214844 Z M 176.878906 285.214844 " fill-opacity="1" fill-rule="nonzero"/><path fill="#009edb" d="M 170.203125 261.253906 C 170.203125 258.914062 167.753906 257.351562 166.53125 255.457031 C 164.082031 258.246094 160.96875 261.253906 158.632812 264.039062 C 158.742188 264.375 159.1875 264.820312 159.300781 264.707031 C 159.964844 263.929688 159.410156 261.921875 161.191406 262.367188 C 162.859375 262.8125 164.640625 262.925781 166.308594 263.035156 C 167.308594 263.59375 167.53125 264.929688 168.421875 265.375 C 168.867188 265.824219 168.3125 266.269531 168.089844 266.601562 C 168.3125 266.824219 168.421875 266.9375 168.644531 267.269531 C 169.203125 266.601562 169.980469 266.269531 170.871094 266.378906 C 171.871094 266.378906 172.09375 267.828125 172.984375 268.050781 C 173.429688 268.609375 172.761719 269.054688 172.316406 269.277344 C 172.539062 270.28125 171.316406 270.613281 171.761719 271.507812 C 172.207031 271.617188 172.761719 271.394531 172.984375 270.949219 C 174.988281 269.5 173.429688 267.605469 173.097656 265.824219 C 172.316406 264.152344 170.648438 263.929688 169.3125 262.703125 C 169.535156 262.035156 169.757812 261.585938 170.203125 261.253906 Z M 170.203125 261.253906 " fill-opacity="1" fill-rule="nonzero"/><path fill="#009edb" d="M 102.21875 278.640625 C 102.441406 282.429688 103.554688 286.105469 103.886719 289.671875 C 104.332031 289.335938 104 288.558594 104.664062 288.558594 C 104.777344 286.664062 105.332031 284.769531 106.335938 283.207031 C 108.003906 283.207031 108.113281 280.867188 109.785156 281.089844 C 110.117188 281.3125 110.453125 281.535156 110.675781 281.871094 C 110.117188 280.757812 110.007812 279.53125 110.453125 278.414062 C 107.671875 278.75 104.777344 278.75 101.996094 278.414062 Z M 102.21875 278.640625 " fill-opacity="1" fill-rule="nonzero"/><path fill="#009edb" d="M 141.050781 296.359375 C 140.941406 295.355469 141.050781 294.464844 141.496094 293.574219 C 142.050781 293.238281 142.832031 293.683594 143.277344 293.238281 C 143.164062 292.792969 142.941406 292.792969 142.609375 292.347656 C 142.386719 291.679688 142.496094 291.007812 142.71875 290.453125 C 142.941406 290.117188 142.273438 289.226562 142.941406 289.003906 C 141.382812 289.785156 139.828125 288.667969 138.492188 288.222656 C 137.710938 287.554688 136.265625 287.441406 136.042969 286.21875 L 131.035156 291.902344 C 134.039062 294.128906 137.378906 295.578125 141.050781 296.359375 Z M 141.050781 296.359375 " fill-opacity="1" fill-rule="nonzero"/><path fill="#009edb" d="M 126.917969 282.875 C 126.808594 281.535156 125.25 282.429688 124.695312 281.648438 L 125.140625 282.429688 C 125.808594 284.992188 127.363281 287.21875 128.589844 289.5625 L 131.035156 286.996094 C 131.035156 286.664062 131.148438 286.328125 130.925781 286.105469 C 130.480469 285.4375 130.8125 284.324219 130.144531 283.988281 C 129.925781 284.546875 130.589844 284.878906 130.257812 285.324219 C 129.367188 285.101562 128.699219 284.546875 128.253906 283.652344 C 128.476562 282.539062 127.585938 283.429688 126.917969 282.875 Z M 126.917969 282.875 " fill-opacity="1" fill-rule="nonzero"/><path fill="#009edb" d="M 134.261719 284.210938 L 133.375 283.652344 C 133.152344 284.324219 132.707031 284.992188 132.261719 285.546875 C 133.152344 285.324219 133.484375 284.210938 134.261719 284.210938 Z M 134.261719 284.210938 " fill-opacity="1" fill-rule="nonzero"/><g clip-path="url(#062aec54e2)"><path fill="#009edb" d="M 199.132812 319.09375 L 198.132812 319.984375 C 204.140625 309.730469 200.582031 295.578125 205.585938 284.769531 C 205.253906 293.683594 210.261719 303.601562 204.695312 311.515625 L 203.917969 312.519531 C 204.03125 312.742188 204.476562 312.628906 204.585938 312.40625 C 208.480469 304.941406 216.269531 299.144531 220.941406 291.902344 C 221.945312 290.117188 222.613281 288.113281 222.835938 285.996094 C 225.171875 301.707031 210.929688 312.628906 199.132812 319.09375 Z M 196.019531 329.792969 C 191.679688 330.683594 187.003906 331.351562 182.777344 332.691406 C 191.011719 325.78125 190.34375 314.636719 196.242188 306.390625 L 200.582031 300.59375 C 196.574219 309.507812 199.132812 321.65625 189.675781 328.007812 L 189.34375 328.566406 L 190.007812 328.566406 C 195.460938 323.773438 202.136719 320.320312 208.589844 317.199219 C 212.375 314.746094 216.046875 311.625 217.828125 307.390625 C 216.378906 317.535156 205.921875 327.230469 196.019531 329.792969 Z M 185.113281 340.269531 C 176.878906 340.824219 170.425781 337.035156 162.527344 336.480469 C 166.085938 335.476562 169.648438 334.808594 172.761719 332.46875 C 178.214844 328.230469 183.445312 321.433594 189.453125 317.535156 C 185.449219 324.109375 182.664062 334.808594 172.875 335.585938 C 172.761719 335.585938 172.652344 335.699219 172.539062 335.808594 C 175.542969 335.808594 178.4375 334.917969 181.441406 334.585938 C 190.34375 333.691406 200.136719 334.140625 206.144531 326.894531 C 201.914062 334.808594 194.015625 339.824219 185.113281 340.269531 Z M 172.761719 348.625 C 165.085938 347.734375 159.855469 341.71875 153.066406 338.820312 C 151.289062 338.597656 149.507812 338.597656 147.839844 338.929688 C 154.292969 342.164062 160.1875 346.398438 165.417969 351.300781 L 162.191406 354.085938 C 157.183594 348.625 151.175781 343.054688 144.613281 339.933594 C 137.601562 343.164062 131.480469 348.179688 126.808594 354.421875 L 123.582031 351.636719 C 128.699219 346.398438 134.707031 342.164062 141.273438 338.929688 C 133.707031 336.589844 129.144531 344.058594 123.246094 346.621094 C 116.792969 349.964844 107.671875 350.296875 101.4375 346.285156 C 99.324219 344.726562 97.320312 343.722656 95.542969 341.496094 C 105.222656 348.515625 117.796875 342.164062 127.03125 337.929688 C 132.707031 336.144531 138.824219 336.144531 144.5 337.929688 C 154.960938 334.027344 165.308594 338.597656 174.210938 342.71875 C 178.882812 344.28125 185.003906 344.726562 189.566406 342.71875 L 193.457031 340.714844 C 188.230469 346.621094 180.996094 349.964844 172.761719 348.625 Z M 82.1875 328.007812 C 88.753906 335.363281 99.101562 334.140625 108.113281 335.253906 C 110.785156 335.363281 113.234375 336.480469 115.902344 336.257812 C 113.457031 335.253906 110.5625 334.917969 108.449219 333.023438 C 102.886719 329.125 102.664062 322.882812 98.65625 318.203125 C 108.003906 323.550781 114.234375 336.257812 125.917969 336.8125 C 115.902344 337.703125 106.445312 343.613281 95.988281 339.601562 C 90.199219 337.480469 85.304688 333.359375 82.1875 328.007812 Z M 70.285156 308.394531 C 74.511719 317.644531 84.75 319.761719 92.09375 324.554688 C 94.429688 326.003906 96.320312 328.121094 98.878906 329.234375 L 98.992188 329.125 C 91.089844 323.664062 90.421875 314.078125 88.976562 305.386719 L 87.53125 301.484375 C 93.984375 308.171875 96.652344 316.753906 99.660156 324.890625 C 100.882812 328.121094 102.996094 330.90625 105.667969 333.023438 C 97.542969 330.683594 88.308594 331.128906 81.632812 325.222656 C 76.070312 321.101562 71.507812 315.082031 70.285156 308.394531 Z M 65.277344 287.21875 C 66.167969 297.25 77.183594 301.929688 81.523438 310.289062 C 82.078125 311.515625 82.96875 312.628906 84.082031 313.410156 C 80.632812 308.507812 79.742188 301.375 81.523438 295.355469 C 82.078125 292.234375 83.191406 289.226562 82.523438 285.769531 C 87.308594 296.46875 84.082031 310.289062 90.089844 320.542969 C 81.742188 314.859375 69.394531 309.175781 66.390625 297.917969 C 65.277344 294.6875 65.277344 290.898438 65.277344 287.21875 Z M 67.390625 264.039062 C 65.832031 274.292969 73.398438 281.203125 74.398438 290.5625 C 74.511719 292.125 75.066406 293.683594 75.847656 295.019531 C 75.511719 292.457031 74.734375 289.5625 75.179688 286.550781 C 75.957031 279.417969 82.078125 274.402344 83.414062 267.496094 C 83.96875 277.191406 80.519531 285.546875 78.292969 294.351562 C 77.851562 297.027344 77.851562 299.703125 78.40625 302.375 C 75.066406 296.46875 68.613281 291.789062 66.832031 285.101562 C 64.832031 278.527344 64.609375 270.28125 67.390625 264.039062 Z M 69.28125 256.238281 C 70.285156 251.667969 72.398438 247.324219 75.402344 243.644531 C 71.0625 250.890625 75.957031 259.691406 74.511719 268.273438 L 74.066406 273.066406 L 74.289062 273.289062 C 74.621094 272.175781 74.84375 270.949219 74.957031 269.835938 C 76.515625 262.480469 84.75 258.800781 88.085938 252.5625 C 87.417969 264.039062 75.847656 271.0625 74.179688 282.09375 C 72.953125 273.289062 67.167969 265.824219 69.28125 256.238281 Z M 78.40625 240.636719 C 80.410156 237.179688 83.636719 234.617188 87.417969 233.390625 C 80.1875 238.628906 82.300781 248.769531 78.515625 255.792969 L 78.738281 255.792969 C 81.300781 247.210938 91.648438 246.207031 94.761719 238.074219 C 94.539062 244.871094 89.308594 251 83.414062 254.789062 C 80.632812 257.019531 78.183594 259.691406 76.402344 262.8125 C 77.628906 255.570312 74.179688 246.875 78.40625 240.636719 Z M 102.550781 225.8125 C 96.097656 230.605469 94.316406 238.183594 87.640625 242.863281 L 83.191406 246.652344 C 84.636719 242.308594 85.527344 237.851562 88.421875 234.0625 C 92.203125 229.378906 97.542969 227.820312 102.550781 225.8125 Z M 115.679688 227.929688 C 130.589844 218.679688 153.625 217.679688 169.203125 226.371094 C 178.660156 230.941406 188.230469 240.414062 193.125 249.996094 C 203.695312 267.496094 201.582031 294.242188 188.785156 310.066406 C 174.765625 328.902344 150.730469 337.035156 128.253906 330.574219 C 107.335938 325.113281 90.199219 305.050781 88.308594 283.320312 C 85.527344 261.03125 96.320312 239.296875 115.679688 227.929688 Z M 201.246094 237.625 C 202.472656 240.191406 202.804688 243.085938 203.917969 245.539062 C 197.796875 240.96875 192.679688 235.398438 188.5625 229.046875 L 184.558594 225.035156 C 190.898438 227.152344 198.6875 230.605469 201.246094 237.625 Z M 210.707031 243.535156 C 212.484375 249.550781 210.261719 255.792969 211.597656 261.921875 C 207.367188 253.5625 196.351562 251.335938 193.570312 241.972656 L 192.457031 237.179688 C 196.128906 245.316406 206.144531 246.320312 209.148438 254.902344 C 209.035156 252.5625 207.589844 250.441406 207.035156 248.214844 C 205.03125 242.753906 205.363281 235.957031 199.914062 232.277344 C 205.03125 234.0625 209.148438 238.296875 210.707031 243.535156 Z M 218.496094 255.792969 C 220.832031 265.375 214.601562 272.398438 213.820312 281.203125 C 212.597656 271.953125 203.808594 266.269531 200.914062 257.796875 C 200.246094 255.792969 199.691406 253.785156 199.246094 251.78125 C 202.582031 257.796875 211.039062 261.363281 212.597656 268.496094 C 212.820312 269.835938 213.152344 271.171875 213.488281 272.398438 C 213.488281 269.164062 213.375 266.046875 213.042969 262.8125 C 213.265625 256.238281 215.492188 248.214844 211.597656 242.640625 C 215.15625 246.320312 217.492188 250.890625 218.496094 255.792969 Z M 215.378906 294.019531 C 213.375 296.359375 211.597656 298.8125 209.816406 301.375 C 211.707031 291.007812 205.140625 282.875 204.695312 272.84375 C 204.363281 270.835938 204.253906 268.71875 204.363281 266.714844 C 206.253906 274.738281 214.488281 280.3125 213.152344 289.785156 C 213.042969 291.34375 212.261719 292.679688 212.375 294.128906 C 214.15625 291.679688 213.597656 288 214.824219 285.214844 C 216.9375 277.859375 222.054688 271.394531 220.609375 262.925781 C 224.835938 272.957031 222.945312 286.105469 215.378906 294.019531 Z M 48.695312 204.527344 L 48.695312 370.359375 L 239.636719 370.359375 L 239.636719 204.527344 Z M 48.695312 204.527344 " fill-opacity="1" fill-rule="nonzero"/></g><path fill="#009edb" d="M 123.46875 304.269531 C 123.46875 305.164062 124.695312 305.164062 124.136719 306.277344 C 122.359375 307.390625 120.242188 306.613281 118.464844 307.949219 C 116.90625 308.839844 115.570312 306.945312 114.679688 307.058594 C 122.359375 313.632812 131.257812 318.089844 141.496094 318.535156 L 142.164062 318.871094 C 141.828125 316.195312 141.828125 313.519531 142.050781 310.847656 C 135.265625 311.179688 128.921875 308.285156 123.46875 304.269531 Z M 123.46875 304.269531 " fill-opacity="1" fill-rule="nonzero"/><path fill="#009edb" d="M 111.230469 307.28125 C 110.230469 306.390625 109.339844 305.496094 108.449219 304.496094 C 107.226562 304.160156 106.222656 303.15625 105.890625 301.929688 C 105.890625 302.042969 105.777344 302.152344 105.667969 302.265625 C 104.441406 302.824219 104.109375 301.375 103.332031 300.929688 C 102.550781 300.480469 103.21875 298.921875 101.882812 299.480469 C 101.214844 298.253906 99.769531 298.363281 99.214844 296.914062 L 98.65625 297.808594 C 97.765625 297.808594 97.097656 296.582031 96.542969 296.023438 C 94.652344 296.582031 95.429688 293.90625 94.316406 293.015625 C 93.984375 291.457031 94.316406 289.785156 95.320312 288.445312 C 95.875 288 96.765625 288.113281 97.210938 288.667969 C 98.210938 289.003906 97.542969 287.890625 98.101562 287.664062 C 99.546875 286.441406 100.214844 288.113281 100.992188 289.003906 C 99.769531 285.546875 99.214844 281.871094 99.214844 278.082031 C 96.433594 278.414062 93.648438 278.414062 90.757812 278.191406 C 91.203125 291.121094 96.320312 303.492188 104.886719 313.074219 C 107.113281 311.179688 109.117188 309.175781 111.230469 307.28125 Z M 111.230469 307.28125 " fill-opacity="1" fill-rule="nonzero"/><path fill="#009edb" d="M 115.347656 245.984375 C 117.460938 247.65625 119.464844 249.550781 121.246094 251.667969 C 126.808594 246.207031 134.375 242.976562 142.164062 242.863281 C 142.050781 240.191406 142.050781 237.515625 142.164062 234.839844 C 132.148438 235.398438 122.691406 239.296875 115.347656 245.984375 Z M 115.347656 245.984375 " fill-opacity="1" fill-rule="nonzero"/><path fill="#009edb" d="M 142.164062 231.609375 C 141.828125 228.824219 141.828125 226.035156 142.050781 223.363281 C 129.144531 224.03125 116.90625 229.15625 107.449219 237.960938 L 113.679688 243.867188 C 121.132812 236.289062 131.371094 231.941406 142.164062 231.609375 Z M 142.164062 231.609375 " fill-opacity="1" fill-rule="nonzero"/><path fill="#009edb" d="M 142.050781 256.90625 C 137.601562 257.351562 133.484375 259.359375 130.367188 262.589844 C 131.480469 262.8125 132.484375 263.257812 133.261719 263.929688 C 133.484375 264.484375 132.816406 264.484375 132.707031 264.820312 C 133.375 265.824219 133.484375 264.597656 134.152344 264.484375 C 134.820312 265.152344 135.375 265.601562 136.265625 265.152344 C 136.710938 265.933594 137.492188 265.152344 138.046875 265.265625 C 138.269531 264.597656 139.160156 264.152344 138.824219 263.371094 C 139.160156 262.8125 139.269531 261.8125 140.050781 261.8125 C 139.605469 264.261719 141.828125 261.8125 142.496094 262.925781 C 141.828125 261.140625 142.273438 258.691406 142.050781 256.90625 Z M 142.050781 256.90625 " fill-opacity="1" fill-rule="nonzero"/><path fill="#009edb" d="M 142.050781 267.382812 C 142.164062 268.164062 142.832031 269.390625 142.050781 269.945312 C 141.164062 271.171875 138.824219 270.949219 138.601562 272.621094 C 136.15625 273.402344 137.046875 276.410156 136.265625 278.304688 C 134.707031 278.640625 135.265625 276.746094 134.484375 276.1875 L 134.152344 276.632812 C 131.703125 274.738281 132.261719 278.75 130.703125 279.085938 C 132.371094 279.417969 133.816406 278.527344 135.488281 278.414062 C 135.597656 278.640625 136.042969 278.75 135.820312 279.085938 L 136.042969 279.085938 C 136.378906 278.75 136.488281 278.191406 136.378906 277.746094 C 136.488281 277.300781 136.933594 276.96875 137.378906 277.191406 C 137.492188 277.191406 137.492188 277.191406 137.601562 277.300781 C 137.492188 277.746094 137.824219 278.191406 138.269531 278.414062 L 137.378906 279.640625 C 136.933594 280.199219 137.492188 281.535156 136.265625 281.535156 C 136.15625 281.648438 135.933594 281.535156 135.933594 281.3125 C 135.933594 281.203125 135.933594 281.089844 135.933594 281.089844 L 135.710938 281.089844 L 136.378906 282.207031 C 137.046875 282.207031 136.933594 280.867188 137.933594 280.644531 C 138.9375 280.421875 138.9375 279.417969 138.824219 278.640625 C 139.9375 277.746094 141.273438 278.304688 142.496094 278.082031 C 142.832031 278.414062 143.5 278.527344 143.386719 279.085938 C 143.832031 279.976562 143.054688 281.089844 142.496094 281.871094 C 142.71875 282.429688 142.164062 282.761719 142.164062 283.429688 C 141.164062 284.433594 140.050781 283.988281 138.714844 284.324219 C 140.382812 285.546875 142.273438 286.21875 144.390625 285.996094 C 146.503906 286.105469 145.5 283.542969 147.058594 282.652344 C 147.949219 282.652344 148.839844 282.652344 149.730469 282.539062 C 150.0625 281.648438 150.285156 280.867188 150.398438 279.976562 C 149.507812 279.53125 149.839844 278.640625 149.730469 277.96875 C 149.171875 277.300781 149.285156 276.1875 148.171875 276.074219 C 147.949219 275.519531 148.617188 275.183594 148.507812 274.738281 C 150.0625 274.179688 147.617188 273.179688 148.617188 272.285156 C 146.835938 271.953125 146.390625 269.167969 144.277344 270.058594 C 143.722656 269.277344 142.386719 269.054688 142.386719 267.941406 C 142.496094 267.269531 143.722656 267.382812 144.054688 267.496094 C 143.945312 267.382812 143.832031 267.269531 143.832031 267.046875 C 143.164062 266.9375 142.496094 267.046875 141.941406 267.382812 Z M 142.050781 267.382812 " fill-opacity="1" fill-rule="nonzero"/><path fill="#009edb" d="M 123.136719 253.785156 C 125.25 255.234375 127.03125 257.351562 129.035156 259.246094 C 132.59375 255.902344 137.15625 253.898438 142.050781 253.785156 C 141.828125 251.113281 141.828125 248.324219 142.164062 245.652344 L 142.050781 245.761719 C 134.820312 246.207031 128.8125 249.441406 123.136719 253.785156 Z M 123.136719 253.785156 " fill-opacity="1" fill-rule="nonzero"/><path fill="#009edb" d="M 100.105469 267.269531 C 101.882812 259.359375 105.332031 251.890625 111.34375 245.984375 L 105.667969 240.523438 L 105.445312 239.746094 C 96.542969 249.441406 91.3125 262.035156 90.867188 275.183594 L 99.324219 275.296875 C 98.992188 272.621094 99.769531 269.945312 100.105469 267.269531 Z M 100.105469 267.269531 " fill-opacity="1" fill-rule="nonzero"/><path fill="#009edb" d="M 145.277344 242.753906 C 151.84375 242.753906 158.074219 244.871094 163.417969 248.769531 C 162.75 248.324219 162.414062 247.546875 162.414062 246.765625 L 162.636719 246.765625 C 162.75 245.761719 161.300781 245.429688 161.746094 244.425781 C 162.972656 244.535156 163.972656 246.207031 164.640625 247.210938 C 168.199219 247.210938 166.199219 251.445312 168.867188 252.785156 C 169.535156 253.117188 168.644531 254.457031 169.648438 254.34375 C 170.539062 255.011719 171.539062 255.792969 171.425781 256.796875 C 171.761719 258.691406 173.207031 256.238281 174.097656 257.464844 C 174.875 258.019531 173.542969 258.46875 173.765625 259.136719 C 174.210938 259.359375 174.65625 258.691406 174.988281 259.246094 C 175.097656 259.917969 174.65625 260.140625 174.320312 260.472656 C 173.988281 261.585938 175.320312 260.917969 175.65625 261.476562 C 176.210938 262.703125 176.65625 264.597656 175.765625 266.046875 C 177.101562 267.496094 175.542969 268.941406 175.320312 270.28125 C 174.433594 271.171875 174.210938 273.289062 172.429688 272.730469 C 171.984375 273.511719 172.652344 274.292969 172.316406 274.851562 L 175.433594 274.960938 C 173.652344 272.507812 175.988281 270.058594 176.65625 267.828125 C 176.992188 267.71875 177.546875 266.9375 177.769531 267.71875 C 177.660156 268.71875 177.546875 269.945312 177.4375 270.726562 C 178.214844 271.953125 177.882812 273.625 178.214844 274.960938 L 186.226562 274.851562 C 185.78125 269.613281 184.445312 264.484375 182.332031 259.804688 C 181.777344 260.027344 181.109375 260.472656 180.441406 260.027344 C 179.660156 258.691406 178.660156 257.464844 177.546875 256.351562 C 176.546875 256.351562 175.765625 255.457031 174.875 255.011719 C 173.097656 255.011719 173.765625 252.449219 171.984375 252.785156 C 171.09375 252.449219 170.316406 251.667969 170.09375 250.777344 C 169.980469 249.550781 169.980469 247.992188 168.757812 246.988281 C 168.089844 246.652344 167.421875 247.101562 166.976562 247.546875 C 165.976562 248.214844 165.53125 247.101562 165.640625 246.320312 C 164.527344 245.429688 165.640625 244.535156 165.085938 243.535156 C 163.527344 242.308594 164.195312 239.96875 162.082031 238.851562 C 158.632812 237.179688 154.960938 236.066406 151.175781 235.398438 C 149.171875 235.175781 147.171875 234.953125 145.167969 234.507812 C 145.390625 237.292969 145.5 240.078125 145.277344 242.753906 Z M 145.277344 242.753906 " fill-opacity="1" fill-rule="nonzero"/><path fill="#009edb" d="M 115.347656 280.644531 C 115.015625 281.757812 116.238281 282.316406 115.570312 283.320312 C 117.015625 284.769531 118.128906 286.441406 117.796875 288.445312 C 118.796875 289.894531 118.574219 292.011719 118.796875 293.796875 C 119.6875 294.6875 120.132812 295.914062 120.019531 297.25 C 120.132812 297.917969 119.351562 298.140625 118.910156 298.363281 C 118.351562 299.035156 119.242188 298.699219 119.242188 299.257812 L 126.253906 292.011719 C 123.691406 289.003906 121.914062 285.4375 121.132812 281.535156 L 120.242188 280.980469 C 120.132812 281.980469 120.132812 283.429688 119.242188 283.765625 C 118.796875 283.320312 117.796875 283.097656 117.796875 282.207031 C 118.019531 281.648438 118.464844 281.980469 118.90625 281.980469 C 118.90625 281.535156 118.90625 281.089844 119.019531 280.644531 C 119.128906 280.085938 118.128906 279.640625 118.90625 279.085938 C 119.574219 279.085938 119.796875 279.753906 120.242188 280.085938 L 121.46875 279.417969 C 121.132812 278.191406 121.800781 276.296875 121.355469 274.960938 C 121.246094 273.957031 120.019531 274.070312 119.242188 274.070312 C 117.351562 274.738281 119.242188 276.519531 119.128906 277.746094 C 118.90625 278.75 117.90625 277.96875 117.351562 278.414062 C 117.90625 279.976562 116.460938 280.3125 115.347656 280.644531 Z M 115.347656 280.644531 " fill-opacity="1" fill-rule="nonzero"/><path fill="#009edb" d="M 115.347656 278.304688 C 114.457031 278.527344 113.566406 278.527344 112.789062 278.082031 C 113.566406 279.976562 113.789062 282.09375 113.566406 284.101562 C 113.566406 283.207031 115.570312 282.207031 114.011719 281.425781 C 114.679688 280.421875 114.234375 278.414062 115.347656 278.304688 Z M 115.347656 278.304688 " fill-opacity="1" fill-rule="nonzero"/><g clip-path="url(#7c41cbf0db)"><path fill="#009edb" d="M 265.894531 250.554688 L 265.894531 204.527344 L 282.253906 204.527344 L 282.253906 249.996094 C 282.253906 260.695312 288.371094 268.050781 300.054688 268.050781 C 311.738281 268.050781 317.746094 260.695312 317.746094 249.996094 L 317.746094 204.527344 L 334.214844 204.527344 L 334.214844 250.441406 C 334.214844 269.390625 323.089844 282.539062 300.054688 282.539062 C 277.023438 282.539062 265.894531 269.5 265.894531 250.554688 Z M 265.894531 250.554688 " fill-opacity="1" fill-rule="nonzero"/></g><g clip-path="url(#7ae71ada5e)"><path fill="#009edb" d="M 400.976562 281.203125 L 364.8125 231.273438 L 364.8125 281.203125 L 348.679688 281.203125 L 348.679688 204.640625 L 365.257812 204.640625 L 400.421875 252.671875 L 400.421875 204.640625 L 416.554688 204.640625 L 416.554688 281.203125 Z M 400.976562 281.203125 " fill-opacity="1" fill-rule="nonzero"/></g><path fill="#009edb" d="M 293.046875 370.359375 L 263.894531 293.683594 L 282.140625 293.683594 L 303.171875 352.527344 L 324.199219 293.683594 L 342.449219 293.683594 L 313.296875 370.359375 Z M 293.046875 370.359375 " fill-opacity="1" fill-rule="nonzero"/><g clip-path="url(#c8453f56c3)"><path fill="#009edb" d="M 404.203125 332.019531 C 404.203125 317.644531 395.191406 306.835938 381.28125 306.835938 C 367.375 306.835938 358.25 317.644531 358.25 332.019531 C 358.25 346.398438 367.261719 357.207031 381.28125 357.207031 C 395.300781 357.207031 404.203125 346.285156 404.203125 332.019531 Z M 341.558594 332.019531 C 341.558594 308.953125 358.25 292.457031 381.171875 292.457031 C 404.09375 292.457031 420.671875 308.953125 420.671875 332.019531 C 420.671875 355.089844 403.980469 371.695312 381.171875 371.695312 C 358.359375 371.695312 341.558594 355.203125 341.558594 332.019531 Z M 341.558594 332.019531 " fill-opacity="1" fill-rule="nonzero"/></g><path fill="#009edb" d="M 431.132812 370.359375 L 431.132812 293.683594 L 447.375 293.683594 L 447.375 355.980469 L 479.421875 355.980469 L 479.421875 370.359375 Z M 431.132812 370.359375 " fill-opacity="1" fill-rule="nonzero"/><g clip-path="url(#00af981fce)"><path fill="#009edb" d="M 485.875 339.601562 L 485.875 293.683594 L 502.234375 293.683594 L 502.234375 339.152344 C 502.234375 349.851562 508.351562 357.207031 520.035156 357.207031 C 531.71875 357.207031 537.726562 349.851562 537.726562 339.152344 L 537.726562 293.683594 L 554.195312 293.683594 L 554.195312 339.601562 C 554.195312 358.546875 543.070312 371.695312 520.035156 371.695312 C 497.003906 371.695312 485.875 358.546875 485.875 339.601562 Z M 485.875 339.601562 " fill-opacity="1" fill-rule="nonzero"/></g><path fill="#009edb" d="M 620.957031 370.359375 L 584.792969 320.320312 L 584.792969 370.359375 L 568.773438 370.359375 L 568.773438 293.683594 L 585.238281 293.683594 L 620.402344 341.828125 L 620.402344 293.683594 L 636.535156 293.683594 L 636.535156 370.359375 Z M 620.957031 370.359375 " fill-opacity="1" fill-rule="nonzero"/><path fill="#009edb" d="M 666.464844 370.359375 L 666.464844 308.058594 L 644.324219 308.058594 L 644.324219 293.683594 L 704.742188 293.683594 L 704.742188 308.058594 L 682.710938 308.058594 L 682.710938 370.359375 Z M 666.464844 370.359375 " fill-opacity="1" fill-rule="nonzero"/><path fill="#009edb" d="M 712.53125 370.359375 L 712.53125 293.683594 L 766.054688 293.683594 L 766.054688 308.058594 L 728.554688 308.058594 L 728.554688 324.109375 L 765.273438 324.109375 L 765.273438 338.484375 L 728.554688 338.484375 L 728.554688 355.980469 L 766.054688 355.980469 L 766.054688 370.359375 Z M 712.53125 370.359375 " fill-opacity="1" fill-rule="nonzero"/><path fill="#009edb" d="M 779.183594 370.359375 L 779.183594 293.683594 L 832.816406 293.683594 L 832.816406 308.058594 L 795.316406 308.058594 L 795.316406 324.109375 L 831.925781 324.109375 L 831.925781 338.484375 L 795.316406 338.484375 L 795.316406 355.980469 L 832.816406 355.980469 L 832.816406 370.359375 Z M 779.183594 370.359375 " fill-opacity="1" fill-rule="nonzero"/><path fill="#009edb" d="M 890.230469 318.3125 C 890.230469 311.960938 885.335938 308.058594 878.992188 308.058594 L 861.96875 308.058594 L 861.96875 328.679688 L 878.992188 328.679688 C 885.445312 328.789062 890.339844 324.890625 890.230469 318.3125 Z M 888.671875 370.359375 L 873.761719 343.164062 L 861.96875 343.164062 L 861.96875 370.359375 L 845.832031 370.359375 L 845.832031 293.683594 L 881.21875 293.683594 C 897.019531 293.683594 906.808594 304.160156 906.808594 318.425781 C 906.808594 331.910156 898.242188 339.265625 890.117188 341.160156 L 907.253906 370.359375 Z M 888.671875 370.359375 " fill-opacity="1" fill-rule="nonzero"/><g clip-path="url(#f57ebf6666)"><path fill="#009edb" d="M 912.59375 359.546875 L 921.496094 346.84375 C 927.726562 353.53125 936.40625 357.207031 945.53125 357.320312 C 954.542969 357.320312 958.660156 353.308594 958.660156 348.851562 C 958.660156 335.476562 915.042969 344.835938 915.042969 315.972656 C 915.042969 303.269531 925.949219 292.679688 943.75 292.679688 C 955.769531 292.679688 965.78125 296.359375 973.238281 303.378906 L 964.222656 315.527344 C 958.214844 310.066406 950.316406 307.058594 942.191406 307.167969 C 935.40625 307.167969 931.511719 310.179688 931.511719 314.746094 C 931.511719 326.785156 975.019531 318.648438 975.019531 347.289062 C 975.019531 361.332031 965.003906 371.917969 944.753906 371.917969 C 930.175781 371.695312 919.714844 366.792969 912.59375 359.546875 Z M 912.59375 359.546875 " fill-opacity="1" fill-rule="nonzero"/></g></svg>