<svg xmlns="http://www.w3.org/2000/svg" xmlns:xlink="http://www.w3.org/1999/xlink" width="1366" zoomAndPan="magnify" viewBox="0 0 1024.5 576" height="768" preserveAspectRatio="xMidYMid meet" version="1.0"><defs><clipPath id="9fe0b6a0cb"><path d="M 0 0.140625 L 1024 0.140625 L 1024 575.859375 L 0 575.859375 Z M 0 0.140625 " clip-rule="nonzero"/></clipPath><clipPath id="686621288b"><path d="M 514 291 L 608.441406 291 L 608.441406 385 L 514 385 Z M 514 291 " clip-rule="nonzero"/></clipPath><clipPath id="c1268ec215"><path d="M 514 389 L 608.441406 389 L 608.441406 482.957031 L 514 482.957031 Z M 514 389 " clip-rule="nonzero"/></clipPath><clipPath id="0aa4b33e3c"><path d="M 415.785156 389 L 510 389 L 510 482.957031 L 415.785156 482.957031 Z M 415.785156 389 " clip-rule="nonzero"/></clipPath><clipPath id="4f8dc24410"><path d="M 416 93.148438 L 608.441406 93.148438 L 608.441406 286 L 416 286 Z M 416 93.148438 " clip-rule="nonzero"/></clipPath></defs><g clip-path="url(#9fe0b6a0cb)"><path fill="#ffffff" d="M 0 0.140625 L 1024 0.140625 L 1024 575.859375 L 0 575.859375 Z M 0 0.140625 " fill-opacity="1" fill-rule="nonzero"/><path fill="#ffffff" d="M 0 0.140625 L 1024 0.140625 L 1024 575.859375 L 0 575.859375 Z M 0 0.140625 " fill-opacity="1" fill-rule="nonzero"/></g><path fill="#0063ac" d="M 416.085938 291.003906 L 509.246094 291.003906 L 509.246094 384.078125 L 416.085938 384.078125 Z M 416.085938 291.003906 " fill-opacity="1" fill-rule="nonzero"/><path fill="#ffffff" d="M 439.710938 306.253906 L 439.710938 342.859375 C 439.710938 362.230469 449.304688 369.417969 462.050781 369.417969 C 475.519531 369.417969 485.585938 361.65625 485.585938 342.582031 L 485.585938 306.253906 L 477.464844 306.253906 L 477.464844 343.132812 C 477.464844 356.804688 471.464844 362.875 462.324219 362.875 C 454.019531 362.875 447.84375 356.96875 447.84375 343.132812 L 447.84375 306.253906 Z M 439.710938 306.253906 " fill-opacity="1" fill-rule="nonzero"/><g clip-path="url(#686621288b)"><path fill="#0063ac" d="M 514.992188 291.003906 L 608.148438 291.003906 L 608.148438 384.078125 L 514.992188 384.078125 Z M 514.992188 291.003906 " fill-opacity="1" fill-rule="nonzero"/></g><path fill="#ffffff" d="M 545.804688 368.628906 C 545.804688 368.628906 545.707031 324.277344 545.242188 316.4375 L 545.527344 316.347656 C 548.585938 323.074219 576.8125 368.632812 576.8125 368.632812 L 584.933594 368.632812 L 584.933594 306.476562 L 577.378906 306.476562 C 577.378906 306.476562 577.558594 349.726562 578.289062 358.03125 L 578.007812 358.113281 C 575.140625 351.667969 547.097656 306.476562 547.097656 306.476562 L 538.234375 306.476562 L 538.234375 368.632812 L 545.804688 368.632812 Z M 545.804688 368.628906 " fill-opacity="1" fill-rule="nonzero"/><g clip-path="url(#c1268ec215)"><path fill="#0063ac" d="M 514.992188 389.792969 L 608.148438 389.792969 L 608.148438 482.863281 L 514.992188 482.863281 Z M 514.992188 389.792969 " fill-opacity="1" fill-rule="nonzero"/></g><path fill="#ffffff" d="M 577.308594 409.785156 C 573.601562 406.460938 567.800781 404.609375 559.851562 404.609375 C 553.402344 404.609375 548.320312 405.171875 544.445312 405.910156 L 544.445312 467.230469 L 552.476562 467.230469 L 552.476562 442.335938 C 554.335938 442.792969 556.539062 442.878906 558.941406 442.878906 C 566.789062 442.878906 573.699219 440.546875 577.941406 436.058594 C 581.179688 432.8125 582.835938 428.386719 582.835938 422.773438 C 582.835938 417.230469 580.714844 412.722656 577.308594 409.785156 " fill-opacity="1" fill-rule="nonzero"/><path fill="#0063ac" d="M 559.128906 436.796875 C 556.535156 436.796875 554.230469 436.605469 552.476562 436.15625 L 552.476562 412 C 553.863281 411.722656 556.535156 411.355469 560.039062 411.355469 C 568.898438 411.355469 574.722656 415.296875 574.722656 423.613281 C 574.726562 431.996094 568.898438 436.796875 559.128906 436.796875 " fill-opacity="1" fill-rule="nonzero"/><g clip-path="url(#0aa4b33e3c)"><path fill="#0063ac" d="M 415.988281 389.886719 L 509.148438 389.886719 L 509.148438 482.957031 L 415.988281 482.957031 Z M 415.988281 389.886719 " fill-opacity="1" fill-rule="nonzero"/></g><path fill="#ffffff" d="M 481.492188 412.183594 C 476.046875 407.113281 467.84375 404.519531 456.304688 404.519531 C 449.925781 404.519531 444.128906 405.078125 439.128906 405.824219 L 439.128906 466.953125 C 443.285156 467.507812 447.996094 467.671875 453.808594 467.671875 C 465.890625 467.671875 475.492188 464.570312 481.414062 458.753906 C 487.117188 453.046875 490.34375 444.726562 490.34375 434.59375 C 490.347656 424.539062 487.117188 417.253906 481.492188 412.183594 " fill-opacity="1" fill-rule="nonzero"/><path fill="#0063ac" d="M 455.378906 461.246094 C 452.230469 461.246094 449.285156 461.246094 447.261719 460.863281 L 447.261719 411.722656 C 449.382812 411.265625 452.527344 410.902344 456.667969 410.902344 C 473.648438 410.902344 481.96875 420.03125 481.867188 434.863281 C 481.863281 451.644531 472.539062 461.328125 455.378906 461.246094 " fill-opacity="1" fill-rule="nonzero"/><g clip-path="url(#4f8dc24410)"><path fill="#0063ac" d="M 416.085938 93.148438 L 608.242188 93.148438 L 608.242188 285.164062 L 416.085938 285.164062 Z M 416.085938 93.148438 " fill-opacity="1" fill-rule="nonzero"/></g><path fill="#ffffff" d="M 580.921875 193.121094 C 578.234375 196.925781 574.984375 200.492188 572.492188 204.378906 C 572.769531 201.308594 573.136719 197.519531 571.929688 194.601562 C 569.863281 188.335938 568.042969 181.96875 567.46875 175.082031 L 567.523438 172.449219 C 569.089844 179.484375 576.007812 184.324219 575.566406 192.207031 C 575.722656 194.121094 575.128906 195.730469 574.777344 197.417969 L 574.902344 197.542969 L 575.214844 197.191406 C 576.234375 193.328125 576.746094 189.257812 578.339844 185.648438 C 580.609375 180.460938 583.429688 175.21875 582.277344 168.953125 C 585.730469 176.34375 584.695312 186.210938 580.921875 193.121094 " fill-opacity="1" fill-rule="nonzero"/><path fill="#ffffff" d="M 576.664062 153.289062 C 581.207031 159.429688 582.210938 169.203125 578.894531 176.238281 C 577.679688 179.226562 576.796875 182.40625 576.316406 185.703125 C 576.078125 185.144531 576.03125 184.375 575.828125 183.734375 C 574.027344 176.851562 567.503906 171.941406 564.8125 165.445312 C 563.96875 163.316406 563.25 161.121094 562.84375 158.8125 C 565.703125 164.105469 572.769531 166.847656 574.703125 172.679688 C 575.496094 174.167969 575.449219 176.003906 575.925781 177.589844 C 576.027344 177.589844 576.132812 177.515625 576.132812 177.414062 C 575.289062 171.398438 575.539062 165.105469 576.367188 159.175781 C 576.316406 155.949219 576.007812 152.832031 574.210938 150.34375 C 575.363281 151.011719 575.886719 152.292969 576.664062 153.289062 " fill-opacity="1" fill-rule="nonzero"/><path fill="#ffffff" d="M 573.472656 152.113281 C 574.667969 157.488281 572.9375 162.730469 574.035156 168.15625 L 573.980469 168.199219 C 571.058594 162.453125 564.839844 159.738281 560.5625 155.132812 C 558.074219 152.394531 557.003906 149.0625 556.398438 145.535156 C 558.851562 151.445312 565.453125 152.753906 569.242188 157.710938 C 570.519531 158.863281 570.9375 160.453125 571.753906 161.765625 L 571.886719 161.625 C 569.699219 156.972656 568.960938 151.726562 567.46875 146.769531 C 566.683594 144.617188 565.171875 142.496094 563.144531 141.136719 C 568.125 142.160156 572.445312 147.351562 573.472656 152.113281 " fill-opacity="1" fill-rule="nonzero"/><path fill="#ffffff" d="M 560.15625 139.78125 C 563.914062 143.128906 565.609375 147.484375 566.71875 151.988281 L 567.324219 153.414062 C 561.871094 149.507812 556.933594 144.234375 553.445312 138.683594 L 549.191406 134.378906 C 552.933594 135.964844 556.960938 136.914062 560.15625 139.78125 " fill-opacity="1" fill-rule="nonzero"/><path fill="#ffffff" d="M 488.921875 135.609375 C 496.011719 132.113281 503.773438 130.242188 512.214844 130.089844 C 531.523438 130.117188 549.960938 141.441406 558.363281 159.296875 C 563.6875 169.558594 565.199219 183.6875 561.75 195.269531 C 558.238281 208.957031 546.714844 222.800781 533.292969 228.429688 C 518.191406 235.824219 496.722656 233.976562 483.257812 224.328125 C 464.539062 211.523438 456.882812 189.433594 462.539062 167.636719 C 465.976562 154.695312 476.292969 141.625 488.921875 135.609375 " fill-opacity="1" fill-rule="nonzero"/><path fill="#ffffff" d="M 474.113281 135.105469 C 470.347656 138.402344 467.734375 142.574219 464.949219 146.460938 C 462.4375 149.550781 459.242188 151.597656 456.390625 154.261719 C 457.929688 151.089844 457.988281 147.300781 460.164062 144.390625 C 463.261719 138.984375 469 137.09375 474.113281 135.105469 " fill-opacity="1" fill-rule="nonzero"/><path fill="#ffffff" d="M 453.53125 146.582031 C 455.34375 144.308594 457.679688 142.722656 460.285156 142.0625 C 455.230469 145.53125 455.546875 151.78125 453.933594 156.976562 C 453.417969 158.890625 452.527344 160.664062 452.09375 162.621094 L 452.230469 162.730469 C 453.074219 160.496094 454.554688 158.410156 456.390625 156.589844 C 460.003906 153.265625 465.335938 151.195312 467.105469 146.277344 C 467.027344 153.109375 461.308594 158.472656 455.863281 162.320312 C 453.59375 164.289062 451.429688 166.546875 450.195312 169.070312 C 450.066406 167.355469 450.457031 165.621094 450.328125 163.777344 C 449.738281 157.816406 449.304688 151.007812 453.53125 146.582031 " fill-opacity="1" fill-rule="nonzero"/><path fill="#ffffff" d="M 443.269531 166.976562 C 443.105469 160.9375 445.617188 156.003906 449.164062 151.5 C 449.246094 151.449219 449.332031 151.347656 449.457031 151.367188 C 445.570312 157.277344 448.785156 164.722656 448.613281 171.453125 L 448.101562 178.335938 C 448.164062 178.382812 448.164062 178.585938 448.351562 178.511719 C 448.582031 177.753906 448.636719 176.929688 448.78125 176.132812 C 449.707031 170.578125 454.523438 166.640625 458.75 162.804688 C 459.65625 161.816406 460.425781 160.78125 460.902344 159.617188 C 460.570312 162.371094 459.695312 165.160156 458.542969 167.722656 C 455.269531 174.117188 449.191406 179.355469 448.097656 186.675781 C 447.5625 179.667969 442.765625 174.425781 443.269531 166.976562 " fill-opacity="1" fill-rule="nonzero"/><path fill="#ffffff" d="M 440.304688 175.570312 C 440.742188 173.683594 441.089844 171.730469 441.90625 169.996094 C 440.335938 177.984375 445.71875 183.734375 447.480469 190.667969 C 448.222656 193.246094 448.410156 196.039062 449.457031 198.46875 C 449.5625 198.519531 449.644531 198.414062 449.714844 198.339844 C 447.078125 190.972656 450.863281 184.140625 454.675781 178.382812 C 455.597656 176.820312 456.140625 175.078125 456.597656 173.300781 C 457.003906 176.621094 456.171875 180.464844 455.675781 183.914062 C 454.757812 188.3125 453.371094 192.476562 452.171875 196.757812 C 451.371094 199.410156 451.582031 202.429688 451.996094 205.21875 L 451.609375 204.914062 C 448.800781 199.773438 443.285156 195.757812 441.652344 190.132812 C 440.285156 185.652344 439.390625 180.464844 440.304688 175.570312 " fill-opacity="1" fill-rule="nonzero"/><path fill="#ffffff" d="M 440.054688 191.175781 C 440.671875 199.648438 449.789062 204.125 454.019531 211.132812 C 455.015625 212.570312 455.886719 214.152344 457.214844 215.347656 C 457.003906 214.457031 456.167969 213.6875 455.855469 212.769531 C 454.367188 209.828125 453.835938 206.324219 454.195312 202.765625 C 454.613281 198.445312 456.417969 194.425781 455.734375 189.871094 C 459.441406 197.882812 458.316406 207.863281 460.390625 216.53125 C 460.929688 218.425781 462.03125 220.109375 462.746094 221.929688 C 455.109375 216.730469 444.714844 211.792969 441.328125 202.28125 C 439.902344 199 439.75 194.9375 440.054688 191.175781 " fill-opacity="1" fill-rule="nonzero"/><path fill="#ffffff" d="M 444.609375 210.617188 C 448.867188 220.234375 459.511719 221.03125 466.667969 226.890625 C 467.964844 228.042969 469.367188 229.035156 470.839844 229.734375 L 470.914062 229.652344 C 469.265625 228.167969 467.382812 226.480469 466.226562 224.5625 C 462.054688 218.757812 463.519531 210.617188 460.390625 204.375 C 463.234375 207.773438 465.820312 211.300781 467.539062 215.171875 C 470.101562 221.46875 471.066406 228.574219 476.996094 233.339844 C 470.574219 231.242188 463.082031 231.832031 457.445312 227.890625 C 451.277344 224.105469 445.769531 217.679688 444.609375 210.617188 " fill-opacity="1" fill-rule="nonzero"/><path fill="#ffffff" d="M 455.546875 228.554688 C 462.351562 236.308594 473.507812 233.71875 482.589844 235.742188 C 483.863281 235.925781 485.050781 236.433594 486.410156 236.226562 C 485.328125 235.539062 483.824219 235.617188 482.644531 235 C 475.523438 232.488281 474.472656 224.789062 470.605469 219.605469 C 475.554688 222.878906 479.691406 227.296875 484.257812 231.574219 C 487.539062 234.433594 491.46875 235.761719 495.617188 236.617188 C 494.628906 236.96875 493.3125 236.867188 492.242188 237.148438 C 484.792969 238.996094 476.492188 241.988281 468.578125 239.292969 C 463.4375 237.683594 458.132812 233.621094 455.546875 228.554688 " fill-opacity="1" fill-rule="nonzero"/><path fill="#ffffff" d="M 548.09375 246.609375 C 540.414062 249.480469 532.390625 246.484375 526.398438 241.9375 C 523.972656 240.390625 521.824219 238.167969 518.671875 238.382812 C 517.542969 238.351562 516.433594 238.40625 515.472656 238.691406 C 521.308594 241.398438 526.722656 245.132812 531.679688 249.917969 C 530.835938 250.859375 529.765625 251.753906 528.742188 252.574219 C 523.972656 247.441406 518.671875 242.488281 512.753906 239.605469 C 511.609375 239.753906 510.496094 240.449219 509.460938 241 C 504.636719 244.050781 499.871094 247.972656 496.296875 252.753906 L 493.210938 250.222656 C 498.132812 245.265625 503.566406 241.398438 509.496094 238.628906 C 503.667969 236.792969 499.855469 241.671875 495.429688 244.160156 C 490.25 247.765625 482.828125 249.457031 476.566406 246.972656 C 473.210938 245.695312 469.972656 243.824219 467.535156 240.777344 C 472.457031 244.160156 479.773438 244.519531 485.355469 242.320312 C 492.863281 239.070312 500.632812 234.953125 509.675781 236.914062 C 511.09375 236.945312 512.472656 238.351562 513.808594 237.152344 C 520.515625 235.410156 528.113281 236.613281 533.90625 239.679688 L 539.867188 242.058594 C 545.402344 244.105469 552.574219 243.546875 557.3125 240.160156 C 554.878906 243.203125 551.550781 245.382812 548.09375 246.609375 " fill-opacity="1" fill-rule="nonzero"/><path fill="#ffffff" d="M 556.339844 238.6875 C 547.695312 241.9375 539.027344 237.949219 530.761719 236.613281 L 529.171875 236.402344 L 529.171875 236.363281 C 533.113281 235.464844 536.953125 234.285156 540.105469 231.4375 C 544.738281 226.988281 548.855469 222.417969 554.011719 218.90625 C 550.191406 223.796875 549.792969 230.75 543.488281 233.894531 C 541.914062 234.917969 539.957031 235.09375 538.335938 235.875 C 540.640625 235.925781 542.742188 235.09375 545.023438 234.867188 C 553.476562 233.546875 563.148438 234.898438 569.066406 227.707031 C 566.859375 232.714844 561.367188 236.917969 556.339844 238.6875 " fill-opacity="1" fill-rule="nonzero"/><path fill="#ffffff" d="M 561.121094 229.910156 C 556.726562 231.089844 552.015625 231.472656 547.730469 232.925781 C 554.976562 226.714844 554.578125 217.097656 559.414062 209.777344 C 560.945312 207.699219 562.222656 205.519531 564.023438 203.5625 C 561.085938 209.46875 562.351562 217.113281 558.976562 222.847656 C 557.671875 225.109375 555.804688 227.320312 553.746094 229.121094 C 554.425781 229.082031 555.015625 228.507812 555.59375 228.121094 C 561.101562 222.644531 568.277344 221.105469 574.210938 216.652344 C 576.59375 214.757812 578.78125 212.28125 579.828125 209.601562 C 578.695312 218.675781 569.65625 227.195312 561.121094 229.910156 " fill-opacity="1" fill-rule="nonzero"/><path fill="#ffffff" d="M 572.007812 214.429688 C 568.605469 216.652344 565.148438 218.71875 561.871094 221.253906 L 561.871094 220.960938 C 566.898438 212.621094 564.433594 201.175781 567.523438 192.023438 L 568.679688 188.953125 C 568.042969 194.652344 570.519531 199.492188 570.355469 205.21875 C 570.167969 208.675781 569.039062 211.746094 567.21875 214.503906 L 567.523438 214.503906 C 569.984375 211.289062 571.910156 207.863281 574.78125 204.785156 C 579.234375 200.492188 583.765625 196.09375 584.355469 190.132812 C 585.863281 200.078125 580.28125 208.792969 572.007812 214.429688 " fill-opacity="1" fill-rule="nonzero"/><path fill="#0063ac" d="M 533.472656 213.769531 L 533.828125 213.277344 C 535.367188 212.078125 537.027344 210.945312 538.386719 209.464844 L 538.574219 209.464844 C 538.253906 209.367188 537.867188 209.671875 537.519531 209.519531 C 536.789062 209.1875 536.671875 208.546875 536.671875 207.804688 L 533.523438 204.554688 L 533.355469 204.070312 C 533.113281 204.6875 532.644531 205.066406 532.195312 205.519531 C 532.21875 205.9375 532.066406 206.554688 532.558594 206.832031 C 533.582031 207.164062 534.910156 207.835938 535.140625 209.03125 C 534.726562 210.160156 532.574219 211.183594 533.902344 212.410156 C 534.335938 213.019531 533.296875 213.25 533.472656 213.769531 " fill-opacity="1" fill-rule="nonzero"/><path fill="#0063ac" d="M 515.160156 172.246094 C 515.753906 172.574219 516.082031 171.96875 516.582031 171.839844 C 517.292969 171.914062 517.847656 172.53125 518.285156 172.988281 C 518.738281 173.191406 519.183594 172.910156 519.589844 172.761719 C 519.875 170.636719 522.539062 170.941406 523.328125 168.953125 L 522.839844 169.132812 C 522.640625 168.84375 522.128906 168.972656 522.160156 168.515625 C 522.589844 168.09375 523.152344 167.457031 523.6875 167.285156 C 521.394531 165.84375 519.011719 164.621094 516.394531 163.964844 C 515.367188 163.722656 514.289062 163.699219 513.316406 163.34375 C 513.808594 164.804688 513.378906 166.945312 513.679688 168.644531 L 515.511719 169.25 C 516.066406 168.359375 517.238281 168.1875 517.746094 167.335938 C 518.074219 167.054688 518.460938 167.335938 518.726562 167.640625 C 518.8125 168.332031 518.621094 169.023438 518.414062 169.683594 C 517.722656 171.070312 516.082031 171.238281 515.160156 172.246094 " fill-opacity="1" fill-rule="nonzero"/><path fill="#0063ac" d="M 542.441406 189.433594 C 541.363281 192.867188 540.105469 196.214844 537.949219 199.207031 C 537.113281 200.28125 536.28125 201.769531 535.199219 202.328125 L 537.519531 204.375 C 537.644531 204.25 537.570312 204.042969 537.605469 203.867188 C 537.605469 203.5625 537.75 203.203125 538.132812 203.246094 C 539.257812 203.222656 539.277344 204.425781 539.921875 205.042969 C 539.785156 206.015625 540.640625 206.78125 540.355469 207.679688 C 546.8125 200.871094 550.042969 192.535156 550.632812 183.296875 L 550.984375 182.890625 C 548.679688 183.113281 546.25 182.957031 543.875 182.992188 L 543.304688 182.816406 C 543.464844 184.375 543.050781 185.882812 542.953125 187.417969 L 543.785156 188.332031 C 544.03125 188.695312 543.941406 189.234375 543.613281 189.507812 C 543.25 189.75 542.792969 189.722656 542.441406 189.433594 " fill-opacity="1" fill-rule="nonzero"/><path fill="#0063ac" d="M 536.28125 166.792969 C 535.421875 165.160156 534.039062 163.699219 532.855469 162.242188 L 532.734375 162.558594 C 530.371094 165.003906 527.785156 167.539062 525.535156 170.050781 C 525.679688 170.351562 525.933594 170.640625 526.230469 170.789062 C 526.320312 170.175781 526.664062 169.632812 526.71875 168.996094 C 527.324219 168.15625 528.257812 168.691406 529.042969 168.871094 C 530.269531 168.585938 531.421875 169.15625 532.679688 169.136719 C 533.605469 169.585938 533.683594 170.765625 534.53125 171.222656 C 534.757812 171.546875 534.574219 171.941406 534.269531 172.199219 C 534.53125 174.117188 535.445312 171.683594 536.421875 172.148438 C 536.824219 172.300781 537.339844 172.246094 537.640625 172.679688 C 537.796875 173.472656 538.773438 173.328125 538.824219 174.085938 C 538.742188 174.464844 538.335938 174.574219 538.0625 174.785156 C 538.3125 175.546875 537.292969 176.03125 537.640625 176.851562 C 539.125 177.132812 539.179688 175.414062 539.867188 174.652344 C 539.488281 173.328125 539.203125 171.964844 538.445312 170.789062 C 537.601562 170.613281 537.09375 169.609375 536.238281 169.433594 C 534.601562 168.789062 536.496094 167.769531 536.28125 166.792969 " fill-opacity="1" fill-rule="nonzero"/><path fill="#0063ac" d="M 513.441406 220.21875 C 515.34375 219.574219 517.542969 219.671875 519.59375 219.34375 C 519.1875 219.1875 518.773438 219.09375 518.460938 218.679688 C 517.261719 218.601562 516.691406 217.355469 516.320312 216.394531 C 516.136719 215.71875 516.605469 215.152344 516.882812 214.558594 C 516.375 213.511719 514.78125 214.269531 513.855469 213.894531 C 513.601562 213.6875 513.417969 213.378906 513.066406 213.324219 L 513.441406 213.894531 C 513.441406 215.996094 513.703125 218.140625 513.441406 220.21875 " fill-opacity="1" fill-rule="nonzero"/><path fill="#0063ac" d="M 515.09375 200.253906 C 515.753906 200.382812 515.285156 201.105469 515.773438 201.363281 C 516.820312 201.023438 517.628906 202.25 518.460938 201.484375 C 518.417969 200.28125 519.78125 200.382812 520.515625 200.074219 C 521.675781 199.386719 522.976562 198.464844 522.847656 196.929688 L 522.652344 196.707031 C 521.863281 196.707031 521.457031 197.316406 520.882812 197.796875 C 520.148438 198.214844 519.789062 197.03125 519.207031 197.316406 C 519.234375 197.441406 519.363281 197.5 519.472656 197.542969 C 519.613281 197.726562 519.667969 198.109375 519.472656 198.292969 C 518.59375 199.085938 518.1875 197.898438 517.363281 197.976562 L 517.363281 198.292969 C 517.394531 198.464844 517.3125 198.75 517.066406 198.640625 C 516.539062 197.796875 515.496094 198.109375 514.980469 197.371094 C 514.65625 197.191406 514.339844 197.421875 514.113281 197.621094 C 513.9375 198.011719 513.113281 197.574219 513.316406 198.246094 C 512.683594 198.464844 512.613281 199.15625 512.148438 199.566406 C 511.339844 199.433594 510.996094 200.335938 510.246094 200.316406 C 510.320312 200.464844 510.246094 200.722656 510.46875 200.742188 C 510.941406 200.949219 511.398438 200.992188 511.96875 200.921875 C 512.726562 199.699219 514.015625 200.722656 515.09375 200.253906 " fill-opacity="1" fill-rule="nonzero"/><path fill="#0063ac" d="M 522.660156 190.261719 C 522.695312 190.640625 522.753906 191.152344 523.078125 191.476562 C 524.074219 191.332031 523.648438 192.707031 524.5625 192.589844 C 525.082031 192.433594 524.597656 192 524.738281 191.667969 C 524.597656 190.894531 523.847656 190.816406 523.328125 190.355469 C 523.273438 190.207031 523.386719 190.078125 523.449219 189.953125 C 523.078125 189.746094 522.898438 189.980469 522.660156 190.261719 " fill-opacity="1" fill-rule="nonzero"/><path fill="#0063ac" d="M 521.496094 154.949219 C 518.898438 154.035156 516.066406 153.640625 513.238281 153.21875 L 513.5 153.777344 L 513.445312 160.707031 L 514.117188 160.574219 C 518.359375 161.160156 522.25 162.523438 525.613281 165.257812 L 525.796875 165.800781 C 526.929688 164.183594 528.675781 162.800781 530.03125 161.269531 L 531.320312 160.523438 L 530.703125 160.273438 C 527.878906 157.921875 524.824219 156.136719 521.496094 154.949219 " fill-opacity="1" fill-rule="nonzero"/><path fill="#0063ac" d="M 473.863281 183.503906 L 474.421875 188.214844 C 474.644531 190.027344 475.449219 191.769531 475.390625 193.558594 C 475.667969 193.175781 475.496094 192.402344 476.195312 192.328125 C 475.902344 191.769531 476.726562 191.285156 476.261719 190.792969 C 476.492188 189.570312 476.636719 188.308594 477.722656 187.421875 C 479.039062 187.367188 479.132812 185.644531 480.441406 185.566406 C 481.105469 185.542969 481.515625 186.441406 481.808594 186.746094 C 480.980469 185.757812 481.023438 184.117188 481.230469 182.988281 L 480.667969 183.25 C 478.285156 183.195312 475.808594 183.390625 473.550781 183.066406 Z M 473.863281 183.503906 " fill-opacity="1" fill-rule="nonzero"/><path fill="#0063ac" d="M 519.78125 195.472656 C 520.386719 194.835938 521.679688 194.863281 521.738281 193.945312 C 520.84375 193.804688 520.386719 194.296875 519.78125 194.785156 C 519.695312 194.980469 519.414062 195.339844 519.78125 195.472656 " fill-opacity="1" fill-rule="nonzero"/><path fill="#0063ac" d="M 536.066406 182.636719 L 536.851562 183.425781 C 537.640625 183.960938 537.113281 185.105469 537.949219 185.570312 C 538.945312 186.078125 539.308594 187.234375 539.753906 188.105469 C 539.902344 187.878906 539.902344 187.597656 539.980469 187.363281 C 540.335938 185.957031 540.28125 184.375 540.714844 182.992188 C 539.175781 183.066406 537.40625 183.21875 536.066406 182.636719 " fill-opacity="1" fill-rule="nonzero"/><path fill="#0063ac" d="M 525.738281 200.5625 C 526.605469 200.789062 527.203125 201.871094 528.292969 201.539062 C 529.222656 201.023438 530.757812 201.84375 531.371094 200.871094 C 531.273438 199.925781 532.089844 199.234375 532.503906 198.417969 L 532.804688 198.339844 C 533.320312 198.871094 533.292969 199.675781 533.527344 200.253906 C 534.234375 199.492188 534.800781 198.640625 535.445312 197.855469 C 537.132812 195.394531 538.574219 192.761719 539.179688 189.953125 C 538.496094 189.976562 537.800781 190.09375 537.167969 190.300781 C 536.421875 190.261719 535.519531 190.691406 534.878906 190.175781 C 534.65625 189.976562 534.496094 190.285156 534.53125 190.488281 C 534.265625 190.871094 534.007812 191.351562 533.417969 191.179688 C 532.960938 190.972656 532.960938 190.488281 532.804688 190.128906 C 532.832031 190.414062 532.730469 190.667969 532.675781 190.921875 C 532.144531 191.476562 531.953125 192.023438 531.578125 192.632812 C 531.042969 193.222656 530.171875 193.015625 529.605469 193.5 C 529.5 194.730469 528.144531 194.46875 527.375 194.867188 C 527.324219 195.015625 527.5 195.035156 527.578125 195.167969 C 527.945312 195.269531 528.429688 195.269531 528.683594 194.910156 C 529.757812 195.195312 529.527344 193.84375 530.152344 193.375 C 530.6875 193.300781 531.199219 192.84375 531.75 193.207031 C 532.324219 193.886719 532.449219 194.886719 532.371094 195.78125 C 531.75 196.390625 532.070312 197.394531 531.628906 198.109375 C 531.726562 198.960938 530.703125 199.339844 530.835938 200.183594 C 530.511719 200.5625 529.9375 200.625 529.425781 200.625 C 527.414062 199.855469 525.277344 199.363281 523.023438 199.15625 C 522.816406 199.234375 522.691406 199.414062 522.71875 199.648438 C 523.648438 200.132812 524.769531 200.15625 525.738281 200.5625 " fill-opacity="1" fill-rule="nonzero"/><path fill="#0063ac" d="M 510.46875 222.976562 L 510.734375 222.589844 L 509.9375 222.796875 C 499.953125 222.113281 491.121094 218.585938 483.824219 211.535156 L 483.742188 211.84375 L 478.46875 217.140625 C 486.453125 224.054688 495.46875 228.507812 505.761719 229.914062 C 507.402344 230.191406 509.28125 230.039062 510.855469 230.523438 L 510.46875 229.914062 Z M 510.46875 222.976562 " fill-opacity="1" fill-rule="nonzero"/><path fill="#0063ac" d="M 500.152344 195.394531 C 502.898438 197.65625 505.96875 199.050781 509.378906 199.644531 C 509.554688 198.957031 509.277344 198.089844 509.632812 197.5 C 509.886719 196.929688 510.570312 196.957031 511.09375 197.054688 C 511.398438 197.03125 511.585938 196.652344 511.398438 196.386719 C 510.65625 196.246094 511 195.425781 510.730469 194.960938 C 510.769531 194.707031 511.199219 194.757812 511.09375 194.417969 C 510.570312 194.011719 511.34375 193.558594 510.914062 193.121094 C 511.035156 193.035156 511.132812 192.882812 511.261719 192.796875 C 509.707031 193.449219 508.058594 192.5 506.691406 191.894531 C 506.015625 191.5 505.046875 191.128906 504.902344 190.300781 C 503.800781 192.09375 501.6875 193.730469 500.152344 195.394531 " fill-opacity="1" fill-rule="nonzero"/><path fill="#0063ac" d="M 497.519531 187.417969 C 497.269531 187.285156 497.234375 187.316406 497.03125 187.539062 C 496.90625 187.539062 496.753906 187.570312 496.652344 187.492188 C 496.652344 186.035156 495.011719 186.90625 494.402344 186.144531 C 495.117188 187.460938 495.5 188.976562 496.234375 190.300781 C 496.703125 191.480469 497.71875 192.40625 498.1875 193.558594 C 498.671875 192.632812 499.648438 191.890625 500.34375 191.046875 C 500.394531 190.667969 500.3125 190.328125 500.09375 190.050781 C 499.875 189.507812 500.082031 188.75 499.660156 188.289062 C 499.007812 188.519531 499.902344 189.179688 499.617188 189.574219 C 499.335938 189.75 499.027344 189.507812 499.007812 189.257812 C 498.414062 189.160156 497.953125 188.640625 497.769531 188.101562 C 498.265625 187.796875 497.648438 187.667969 497.519531 187.417969 " fill-opacity="1" fill-rule="nonzero"/><path fill="#0063ac" d="M 502.4375 188.160156 C 502.273438 188.796875 501.847656 189.355469 501.378906 189.820312 L 501.460938 189.867188 C 502.074219 189.429688 502.519531 188.648438 503.308594 188.597656 Z M 502.4375 188.160156 " fill-opacity="1" fill-rule="nonzero"/><path fill="#0063ac" d="M 509.863281 213.027344 C 503.636719 212.714844 498.1875 210.441406 493.34375 206.828125 C 493.496094 207.441406 494.3125 207.835938 494.085938 208.597656 C 493.648438 209.296875 492.753906 209.308594 492.042969 209.296875 C 490.574219 209.058594 489.496094 210.164062 488.128906 210.308594 C 486.867188 210.699219 486.429688 209.160156 485.28125 209.296875 C 492.394531 215.5 500.535156 219.386719 510.070312 219.902344 L 510.789062 220.390625 L 510.472656 219.523438 L 510.472656 212.765625 Z M 509.863281 213.027344 " fill-opacity="1" fill-rule="nonzero"/><path fill="#0063ac" d="M 482.210938 209.699219 C 481.335938 209.082031 480.558594 208.089844 479.828125 207.238281 C 478.984375 207.011719 478.105469 206.421875 477.675781 205.609375 C 477.421875 205.316406 477.65625 204.816406 477.375 204.609375 L 477.050781 204.992188 C 476.15625 205.425781 475.839844 204.503906 475.222656 204.125 C 474.417969 203.695312 474.8125 202.179688 473.730469 202.457031 C 473.324219 202.4375 473.191406 201.976562 472.9375 201.726562 C 471.945312 201.820312 471.683594 200.722656 471.144531 200.1875 C 471.039062 200.417969 471.144531 200.722656 470.839844 200.875 C 469.8125 201.105469 469.460938 199.851562 468.761719 199.335938 C 468.578125 199.414062 468.457031 199.628906 468.191406 199.574219 C 467.589844 199.035156 467.175781 198.261719 467.144531 197.425781 C 466.300781 196.464844 466.6875 194.964844 466.847656 193.808594 C 467 193.503906 467.441406 193.328125 467.351562 192.949219 C 467.589844 192.40625 468.152344 192.355469 468.691406 192.328125 C 468.898438 192.4375 469.101562 192.632812 469.195312 192.820312 C 469.53125 192.613281 470.28125 192.839844 469.992188 192.097656 C 470.421875 191.71875 471.074219 191.582031 471.664062 191.480469 C 472.074219 192 472.273438 192.585938 472.820312 193.066406 L 472.460938 192.507812 C 471.84375 190 471.363281 187.445312 471.21875 184.730469 C 471.25 184.578125 470.902344 184.503906 471.097656 184.355469 L 471.144531 184.425781 C 471.175781 183.863281 471.132812 183.375 471.222656 182.992188 L 470.53125 183.253906 L 463.414062 183.203125 C 463.824219 191.378906 465.996094 198.828125 469.691406 205.664062 C 471.503906 209.035156 474.167969 212.078125 476.492188 215.230469 L 481.589844 209.957031 Z M 482.210938 209.699219 " fill-opacity="1" fill-rule="nonzero"/><path fill="#0063ac" d="M 490.398438 149.964844 C 488.808594 151.066406 487.351562 152.5 485.714844 153.472656 C 487.613281 154.667969 489.171875 156.675781 490.886719 158.25 L 491.066406 158.738281 C 495.425781 154.570312 500.71875 152.140625 506.4375 150.964844 C 507.785156 150.828125 509.152344 150.375 510.46875 150.660156 C 510.375 148.222656 510.160156 145.691406 510.414062 143.28125 C 502.996094 143.722656 496.355469 145.972656 490.398438 149.964844 " fill-opacity="1" fill-rule="nonzero"/><path fill="#0063ac" d="M 484.304688 176.671875 C 484.027344 177.902344 484.183594 179.328125 483.6875 180.484375 C 484.597656 180.066406 485.890625 180.230469 486.890625 180.355469 C 486.308594 180.046875 486.800781 179.308594 486.453125 178.890625 C 486.378906 178.265625 486.269531 177.46875 486.890625 177.050781 C 486.820312 176.003906 487.9375 175.464844 488.050781 174.519531 C 488.328125 173.449219 489.550781 174.171875 490.148438 173.601562 C 490.53125 173.394531 490.195312 173.042969 490.195312 172.757812 C 490.710938 172.058594 491.503906 172.09375 492.113281 171.703125 C 492.554688 171.042969 493.117188 170.324219 493.832031 169.925781 C 495.371094 169.976562 495.398438 167.820312 496.851562 167.765625 C 494.859375 166.257812 492.960938 164.238281 491.195312 162.492188 C 487.667969 166.71875 485.253906 171.371094 484.304688 176.671875 " fill-opacity="1" fill-rule="nonzero"/><path fill="#0063ac" d="M 485.28125 187.050781 C 485.355469 186.589844 484.671875 186.472656 484.734375 186.011719 C 485.226562 185.058594 484.761719 183.527344 486.023438 183.117188 C 485.128906 183.269531 484.332031 183.449219 483.574219 182.890625 L 483.9375 183.503906 C 483.996094 185.191406 484.671875 186.800781 484.304688 188.519531 C 484.597656 188.03125 484.671875 187.367188 485.28125 187.050781 " fill-opacity="1" fill-rule="nonzero"/><path fill="#0063ac" d="M 492.339844 205.519531 L 492.246094 205.347656 L 492.339844 205.664062 Z M 492.339844 205.519531 " fill-opacity="1" fill-rule="nonzero"/><path fill="#0063ac" d="M 483.820312 155.613281 L 481.050781 159.132812 C 476.523438 165.339844 474.367188 172.527344 473.730469 180.359375 L 480.75 180.226562 L 481.414062 180.488281 C 481.132812 180.300781 481.199219 180 481.105469 179.746094 C 481.675781 172.453125 484.230469 165.957031 489.265625 160.527344 C 487.328125 158.847656 485.507812 157.054688 483.859375 155.132812 Z M 483.820312 155.613281 " fill-opacity="1" fill-rule="nonzero"/><path fill="#0063ac" d="M 505.449219 203.453125 C 506.011719 202.859375 506.675781 202.460938 507.371094 202.203125 C 505.101562 202.667969 503.09375 201.027344 501.15625 200.132812 C 500.050781 199.3125 498.617188 198.644531 497.953125 197.421875 C 496.4375 199.261719 494.648438 201.179688 492.863281 202.636719 C 493.644531 202.6875 494.089844 203.5625 494.753906 203.949219 C 498.597656 207.140625 503.382812 208.679688 507.832031 209.777344 L 506.617188 209.207031 C 505.6875 208.167969 504.378906 206.933594 504.332031 205.484375 C 505.25 205.164062 505.148438 204.148438 505.449219 203.453125 " fill-opacity="1" fill-rule="nonzero"/><path fill="#0063ac" d="M 487.9375 183.117188 L 487.738281 184.46875 C 487.425781 185.269531 486.429688 184.671875 485.972656 185.21875 C 485.640625 185.726562 485.988281 186.261719 486.269531 186.671875 C 485.554688 188.308594 487.894531 188.828125 487.859375 190.304688 C 488.582031 191.226562 487.761719 192.554688 488.789062 193.375 C 489.015625 195.039062 488.558594 197.292969 490.019531 198.59375 L 490.277344 200.1875 C 490.574219 201.28125 488.964844 200.996094 489.171875 201.972656 C 489.492188 201.820312 489.550781 202.234375 489.582031 202.332031 L 489.582031 202.28125 C 491.554688 200.007812 493.832031 197.601562 496.160156 195.582031 L 495.191406 194.605469 C 493.371094 191.890625 491.9375 189 491.246094 185.828125 L 490.507812 185.449219 C 490.476562 186.265625 490.089844 186.90625 490.148438 187.722656 L 489.890625 188.027344 C 489.355469 188.011719 489.015625 187.570312 488.558594 187.285156 C 488.449219 187.003906 488.167969 186.550781 488.609375 186.320312 C 488.867188 186.300781 489.039062 186.371094 489.230469 186.492188 C 489.453125 186.214844 489.355469 185.808594 489.492188 185.449219 C 489.550781 184.832031 489.015625 184.269531 489.398438 183.730469 C 489.890625 183.683594 490.25 184.269531 490.449219 184.601562 C 490.941406 184.75 491.328125 184.351562 491.734375 184.167969 C 491.734375 183.730469 492.339844 183.140625 491.675781 182.890625 C 492.042969 181.890625 491.785156 180.84375 491.621094 179.871094 C 491.351562 179.027344 490.398438 179.179688 489.710938 179.257812 C 487.636719 179.917969 490.046875 181.484375 489.535156 182.757812 C 489.242188 183.503906 488.476562 182.816406 487.9375 183.117188 " fill-opacity="1" fill-rule="nonzero"/><path fill="#0063ac" d="M 553.566406 182.992188 L 553.140625 182.683594 L 553.390625 183.375 C 552.988281 191.890625 550.144531 199.410156 545.265625 206.101562 C 544.332031 207.21875 543.445312 208.59375 542.253906 209.390625 C 544.207031 210.921875 546.359375 213.226562 547.960938 215 L 548.160156 214.613281 C 556.003906 205.683594 560.457031 195.335938 560.945312 183.371094 L 561.257812 182.761719 L 560.875 182.945312 Z M 553.566406 182.992188 " fill-opacity="1" fill-rule="nonzero"/><path fill="#0063ac" d="M 484.179688 151.671875 L 484.304688 151.316406 C 491.78125 144.515625 500.488281 140.777344 510.46875 140.316406 L 510.242188 139.707031 L 510.164062 133.558594 L 510.375 132.847656 C 500.078125 133.253906 490.9375 136.761719 482.832031 142.59375 C 481.261719 143.671875 479.878906 145.304688 478.292969 146.230469 L 478.511719 146.230469 C 480.542969 147.707031 482.464844 149.832031 484.179688 151.671875 " fill-opacity="1" fill-rule="nonzero"/><path fill="#0063ac" d="M 510.125 153.414062 C 503.617188 153.882812 497.972656 156.585938 493.035156 160.664062 C 494.988281 162.003906 496.722656 164.183594 498.492188 165.742188 C 498.617188 165.570312 498.75 165.390625 498.878906 165.179688 C 501.3125 163.449219 503.828125 161.867188 506.695312 161.144531 C 507.960938 161.011719 509.226562 160.40625 510.554688 160.703125 C 510.277344 158.296875 510.277344 155.644531 510.554688 153.164062 Z M 510.125 153.414062 " fill-opacity="1" fill-rule="nonzero"/><path fill="#0063ac" d="M 510.46875 163.546875 C 506.351562 164.085938 502.558594 165.492188 499.542969 168.6875 L 500.097656 168.6875 C 500.71875 169.304688 501.710938 169.175781 502.179688 170 C 502.410156 170.460938 501.742188 170.40625 501.765625 170.785156 C 501.898438 170.898438 502.082031 170.914062 502.179688 171.09375 C 502.664062 171.261719 502.558594 170.816406 502.75 170.613281 C 503.378906 169.976562 503.488281 171.226562 504.097656 171.226562 C 504.535156 170.941406 505.148438 170.914062 505.453125 171.402344 C 505.871094 171.042969 506.742188 171.371094 506.867188 170.71875 C 507.671875 169.867188 507.226562 168.570312 508.402344 168.03125 C 508.816406 168.25 508.378906 168.640625 508.53125 169.003906 C 509.320312 169.332031 510.21875 168.328125 510.855469 169.132812 C 510.277344 167.464844 510.414062 165.386719 510.46875 163.546875 " fill-opacity="1" fill-rule="nonzero"/><path fill="#0063ac" d="M 510.734375 175.011719 C 509.972656 176.285156 508.6875 176.570312 507.488281 176.929688 C 507.148438 177.335938 507.226562 178.234375 506.4375 178.152344 C 506.179688 178.722656 505.308594 179.050781 505.640625 179.871094 C 505.222656 180.738281 505.421875 181.867188 505.203125 182.816406 C 503.695312 183.761719 504.117188 181.558594 503.367188 181.097656 L 503.09375 181.535156 C 502.804688 181.609375 502.597656 181.429688 502.386719 181.230469 C 502.160156 181.136719 501.765625 181.066406 501.5625 181.28125 C 501.230469 181.84375 500.71875 182.304688 500.847656 183.066406 C 500.695312 183.523438 499.925781 183.371094 500.035156 183.863281 C 500.878906 183.839844 501.789062 183.6875 502.617188 183.503906 C 503.210938 183.65625 503.691406 183.222656 504.285156 183.199219 C 504.476562 183.300781 504.730469 183.503906 504.640625 183.808594 L 504.851562 183.808594 C 505.25 183.503906 505.421875 183.03125 505.25 182.585938 C 505.308594 182.042969 505.894531 182.042969 506.246094 181.890625 C 506.578125 182.042969 506.371094 182.375 506.4375 182.640625 C 507.582031 183.066406 506.152344 183.914062 505.988281 184.523438 C 505.6875 185.011719 505.988281 186.117188 505.023438 185.960938 C 504.847656 185.910156 504.730469 185.726562 504.773438 185.519531 L 504.640625 185.519531 C 504.613281 185.933594 504.925781 186.492188 505.328125 186.671875 C 506.039062 186.082031 506.066406 185.085938 507.105469 184.957031 C 507.628906 184.398438 506.867188 183.523438 507.667969 183.066406 C 508.996094 183.03125 510.410156 182.476562 511.472656 183.546875 C 511.394531 184.007812 511.222656 184.226562 511.605469 184.601562 C 511.339844 185.191406 511.175781 185.828125 510.683594 186.320312 C 510.804688 186.648438 510.710938 187.054688 510.410156 187.285156 C 510.0625 188.851562 508.273438 188.101562 507.222656 188.648438 C 508.835938 189.871094 510.785156 190.328125 512.875 190.179688 C 513.976562 190.128906 513.496094 188.773438 514.058594 188.164062 C 514.414062 186.371094 516.058594 187.59375 517.0625 187.109375 C 517.441406 186.347656 517.824219 185.601562 517.921875 184.730469 C 517.289062 184.324219 517.035156 183.546875 517.234375 182.816406 C 516.800781 182.226562 516.847656 181.148438 515.890625 181.042969 C 515.753906 180.84375 515.867188 180.578125 516 180.4375 C 515.984375 179.871094 516.535156 179.691406 516.695312 179.257812 C 516.113281 178.875 516.265625 178.027344 516.308594 177.535156 C 515.300781 177.824219 515.207031 176.523438 514.464844 176.242188 C 514.285156 175.648438 513.644531 175.546875 513.136719 175.449219 C 511.90625 176.035156 511.703125 174.523438 510.78125 174.167969 C 510.679688 173.886719 510.464844 173.476562 510.78125 173.246094 C 511.242188 172.855469 511.851562 173.195312 512.386719 173.164062 L 511.960938 172.933594 C 511.554688 172.476562 510.652344 172.761719 510.117188 172.933594 C 510.636719 173.449219 510.414062 174.371094 510.734375 175.011719 " fill-opacity="1" fill-rule="nonzero"/><path fill="#0063ac" d="M 471.269531 180.4375 L 471.09375 179.433594 C 471.585938 171.269531 474.191406 164.007812 478.78125 157.515625 C 479.921875 156.203125 480.769531 154.574219 482.207031 153.59375 C 480.542969 152.039062 478.8125 150.21875 477.054688 148.507812 L 476.878906 147.8125 C 469.574219 155.921875 465.082031 165.179688 463.773438 175.75 C 463.480469 177.289062 463.675781 178.871094 463.367188 180.4375 C 465.921875 180.230469 468.707031 180.230469 471.269531 180.4375 " fill-opacity="1" fill-rule="nonzero"/><path fill="#0063ac" d="M 540.546875 211.007812 C 539.816406 212.410156 538.234375 213.300781 537.027344 214.382812 C 535.367188 216.046875 532.652344 216.402344 531.804688 218.8125 C 530.910156 219.621094 530.609375 220.902344 529.355469 221.359375 C 528.882812 222.589844 527.578125 222.515625 526.839844 223.40625 C 524.691406 225.324219 523.304688 222.183594 521.359375 221.804688 L 517.445312 222.492188 C 516.082031 222.492188 514.726562 222.976562 513.441406 222.539062 C 513.632812 225.144531 513.632812 227.960938 513.441406 230.574219 L 513.929688 230.265625 C 526.277344 229.734375 536.925781 225.046875 546.066406 216.757812 L 540.671875 211.617188 Z M 540.546875 211.007812 " fill-opacity="1" fill-rule="nonzero"/><path fill="#0063ac" d="M 513.316406 139.648438 C 513.316406 139.421875 513.417969 139.222656 513.554688 139.046875 C 513.914062 138.832031 514.207031 139.148438 514.355469 139.394531 C 514.394531 139.757812 514.546875 140.378906 514.242188 140.582031 C 514.546875 140.625 514.710938 140.398438 514.976562 140.398438 C 520.839844 140.835938 526.273438 142.542969 531.140625 145.304688 L 531.140625 145.183594 C 532.144531 144.695312 533.417969 144.054688 534.441406 144.925781 C 535.675781 144.46875 535.898438 145.972656 536.902344 146.148438 C 538.109375 146.867188 539.46875 148.207031 539.621094 149.609375 C 539.839844 150.074219 540.5625 150.398438 540.667969 150.890625 C 541.492188 149.148438 543.125 147.914062 544.542969 146.410156 L 545.402344 146.046875 C 537.671875 138.683594 528.484375 134.613281 518.226562 133.207031 C 516.601562 132.925781 514.792969 133.078125 513.238281 132.59375 C 513.554688 134.613281 513.464844 137.378906 513.316406 139.648438 " fill-opacity="1" fill-rule="nonzero"/><path fill="#0063ac" d="M 513.316406 150.65625 C 514.289062 150.316406 515.285156 150.734375 516.261719 150.757812 C 521.28125 151.578125 526.027344 153.183594 530.03125 156.28125 C 529.554688 155.769531 528.960938 155.1875 528.855469 154.4375 C 528.941406 154.335938 529.039062 154.316406 529.167969 154.335938 C 529.222656 153.542969 528.375 153.132812 528.257812 152.417969 C 528.375 152.273438 528.5625 152.117188 528.816406 152.191406 C 529.679688 153.011719 530.417969 153.910156 531.0625 154.816406 C 531.632812 154.59375 532.089844 154.953125 532.503906 155.253906 C 533.242188 155.6875 532.785156 156.644531 533.355469 157.152344 C 533.449219 158.664062 535.292969 159.511719 535.195312 161.011719 C 535.207031 161.371094 535.648438 161.089844 535.804688 161.273438 L 537.339844 163.160156 C 537.054688 163.527344 537.292969 163.960938 537.605469 164.203125 C 538.289062 164.523438 538.675781 163.644531 539.355469 163.777344 C 540.351562 164.339844 539.207031 165.003906 539.304688 165.617188 C 539.691406 165.640625 540.1875 165.3125 540.492188 165.695312 C 540.621094 166.261719 540.03125 166.617188 539.789062 166.980469 C 539.789062 167.539062 540.257812 167.414062 540.667969 167.539062 C 541.125 167.515625 541.414062 168.082031 541.285156 168.464844 C 542.566406 169.792969 540.898438 171.222656 541.511719 172.632812 C 541.914062 173.546875 541.414062 174.445312 540.839844 175.140625 C 540.871094 176.265625 539.839844 176.953125 539.445312 177.902344 L 538.132812 178.152344 C 537.4375 178.84375 538.726562 179.691406 538.027344 180.128906 L 540.898438 180.179688 L 540.582031 179.878906 C 540.1875 178.753906 540.277344 177.230469 540.972656 176.238281 C 541.414062 175.316406 541.511719 174.210938 542.332031 173.421875 C 542.507812 173.375 542.839844 173.042969 542.996094 173.421875 C 543.050781 174.292969 542.972656 175.285156 542.566406 176.058594 C 543.386719 177.230469 543.277344 178.769531 543.351562 180.226562 C 545.890625 180.070312 548.375 180.027344 550.863281 180.046875 L 550.636719 179.558594 C 550.246094 174.832031 549.277344 170.347656 547.300781 166.3125 C 546.761719 166.34375 546.378906 166.769531 545.765625 166.617188 C 545.5625 166.546875 545.429688 166.34375 545.457031 166.109375 C 544.433594 165.136719 543.785156 163.859375 542.648438 162.980469 C 541.324219 163.113281 540.738281 161.601562 539.558594 161.449219 C 538.515625 161.011719 539.238281 159.324219 537.722656 159.789062 C 536.980469 159.476562 536.257812 158.914062 536.109375 158.074219 C 536.109375 156.742188 535.851562 155.304688 534.65625 154.4375 C 533.730469 154.105469 533.355469 155.332031 532.421875 155.132812 C 531.914062 154.871094 532.144531 154.210938 531.976562 153.777344 C 531.804688 153.390625 531.371094 153.109375 531.445312 152.597656 C 532.648438 151.015625 529.984375 151.042969 530.574219 149.476562 C 530.417969 148.347656 529.277344 147.910156 528.683594 147.023438 C 524.710938 145.230469 520.746094 144.011719 516.261719 143.46875 C 515.160156 143.308594 514.144531 143.542969 513.195312 143.035156 L 513.441406 143.511719 C 513.386719 145.894531 513.554688 148.425781 513.316406 150.65625 " fill-opacity="1" fill-rule="nonzero"/><path fill="#0063ac" d="M 541.324219 153.289062 C 541.871094 153.414062 542.027344 154.054688 542.390625 154.4375 C 544.246094 155.4375 544.734375 157.433594 546.378906 158.558594 C 547.300781 160.488281 549.425781 161.960938 549.5 164.164062 C 551.726562 169.078125 553.238281 174.273438 553.390625 180.054688 L 553.191406 180.355469 C 553.421875 180.355469 553.621094 180.253906 553.800781 180.132812 L 561.179688 179.996094 C 560.695312 179.28125 560.898438 178.238281 560.765625 177.363281 C 559.792969 165.980469 554.929688 156.230469 547.300781 147.636719 C 545.882812 149.53125 543.96875 151.292969 542.207031 153.109375 Z M 541.324219 153.289062 " fill-opacity="1" fill-rule="nonzero"/><path fill="#ffffff" d="M 514.355469 138.429688 C 514.578125 138.023438 515.167969 138.167969 515.472656 138.296875 L 519.15625 136.714844 C 520.636719 136.839844 522.273438 137.019531 523.15625 138.25 L 523.15625 138.429688 C 522.226562 139.191406 521.050781 139.804688 519.828125 139.292969 C 518.132812 139.628906 515.773438 140.601562 514.414062 138.863281 C 514.355469 138.738281 514.203125 138.554688 514.355469 138.429688 " fill-opacity="1" fill-rule="nonzero"/><path fill="#ffffff" d="M 536.363281 143.078125 C 536.871094 143.242188 537.339844 143.46875 537.523438 144.011719 C 537.378906 144.582031 538.0625 145.078125 537.644531 145.535156 C 536.257812 145.894531 536.132812 144.339844 535.0625 143.953125 C 534.910156 143.746094 534.859375 143.488281 534.878906 143.207031 C 535.367188 142.621094 535.824219 143.597656 536.363281 143.078125 " fill-opacity="1" fill-rule="nonzero"/></svg>